<?xml version="1.0" standalone="no"?><!DOCTYPE svg PUBLIC "-//W3C//DTD SVG 1.1//EN" "http://www.w3.org/Graphics/SVG/1.1/DTD/svg11.dtd"><svg t="1570779953142" class="icon" viewBox="0 0 1024 1024" version="1.1" xmlns="http://www.w3.org/2000/svg" p-id="4902" xmlns:xlink="http://www.w3.org/1999/xlink" width="200" height="200"><defs><style type="text/css"></style></defs><path d="M640 640v42.666667H287.146667a85.098667 85.098667 0 0 0 11.52-42.666667 83.328 83.328 0 0 0-2.56-20.693333L298.666667 618.666667h341.333333l1.706667 0.213333A114.453333 114.453333 0 0 0 640 640z" fill="#7C8691" p-id="4903"></path><path d="M789.333333 490.666667a149.333333 149.333333 0 0 1 149.333334 149.333333v42.666667h-75.52a85.333333 85.333333 0 1 0-147.626667 0H640v-42.666667a114.453333 114.453333 0 0 1 1.706667-21.12A148.906667 148.906667 0 0 1 789.333333 490.666667z" fill="#7C8691" p-id="4904"></path><path d="M863.146667 682.666667a85.205333 85.205333 0 1 1 11.52-42.666667 84.906667 84.906667 0 0 1-11.52 42.666667zM287.146667 682.666667a85.333333 85.333333 0 1 1 8.96-63.36A83.328 83.328 0 0 1 298.666667 640a85.098667 85.098667 0 0 1-11.52 42.666667z" fill="#C1CAD4" p-id="4905"></path><path d="M597.546667 361.173333L597.333333 362.666667c0 85.333333-85.333333 85.333333-85.333333 85.333333H213.333333s138.666667-74.666667 192-128z" fill="#87D7F5" p-id="4906"></path><path d="M597.546667 361.173333L597.333333 362.666667c0 85.333333-85.333333 85.333333-85.333333 85.333333H213.333333" fill="#F8FAFD" p-id="4907"></path><path d="M1002.666667 512v170.666667h-64v-42.666667a149.226667 149.226667 0 0 0-296.96-21.12L640 618.666667H298.666667l-2.56 0.64A85.333333 85.333333 0 1 0 139.52 682.666667H21.333333v-106.666667s85.333333-128 192-128h298.666667s85.333333 0 85.333333-85.333333l0.213334-1.493334L938.666667 434.346667l64 13.653333z" fill="#FFCA6B" p-id="4908"></path><path d="M213.333333 746.666667a106.666667 106.666667 0 1 1 103.488-132.458667A103.552 103.552 0 0 1 320 640a107.072 107.072 0 0 1-14.357333 53.333333A106.666667 106.666667 0 0 1 213.333333 746.666667z m0-170.666667a64 64 0 1 0 55.317334 96A64 64 0 0 0 213.333333 576zM789.333333 746.666667a106.88 106.88 0 1 1 92.309334-53.333334A106.666667 106.666667 0 0 1 789.333333 746.666667z m0-170.666667a64 64 0 1 0 55.317334 96A63.872 63.872 0 0 0 789.333333 576z" fill="#2A3244" p-id="4909"></path><path d="M277.333333 661.333333h448v42.666667H277.333333z" fill="#2A3244" p-id="4910"></path><path d="M1002.666667 704h-149.333334v-42.666667h128v-196.074666l-569.472-122.048c-59.306667 53.781333-182.933333 120.618667-188.416 123.562666A21.12 21.12 0 0 1 213.333333 469.333333c-82.538667 0-154.112 90.816-170.666666 113.450667V661.333333h106.666666v42.666667H21.333333a21.333333 21.333333 0 0 1-21.333333-21.333333v-106.666667a21.461333 21.461333 0 0 1 3.584-11.84c3.669333-5.504 90.154667-133.269333 204.117333-137.386667 23.957333-13.184 137.28-76.586667 182.549334-121.856a21.333333 21.333333 0 0 1 19.541333-5.781333l597.333333 128A21.333333 21.333333 0 0 1 1024 448v234.666667a21.333333 21.333333 0 0 1-21.333333 21.333333z" fill="#2A3244" p-id="4911"></path><path d="M960 682.666667h-42.666667v-42.666667a127.893333 127.893333 0 0 0-254.485333-18.218667A96.128 96.128 0 0 0 661.333333 640v42.666667h-42.666666v-42.666667a134.4 134.4 0 0 1 2.133333-25.066667A170.56 170.56 0 0 1 960 640zM512 469.333333H213.333333v-42.666666h298.666667a60.842667 60.842667 0 0 0 64-64h42.666667a102.848 102.848 0 0 1-106.666667 106.666666z" fill="#2A3244" p-id="4912"></path><path d="M298.666667 597.333333h341.333333v42.666667H298.666667zM384 554.666667h-42.666667v-33.834667l-57.749333-57.749333 30.165333-30.165334 64 64A21.333333 21.333333 0 0 1 384 512zM938.666667 490.666667h64v42.666666h-64zM917.333333 341.333333h42.666667v106.666667h-42.666667z" fill="#2A3244" p-id="4913"></path><path d="M1002.666667 362.666667h-128v-42.666667h106.666666v-21.333333h42.666667v42.666666a21.333333 21.333333 0 0 1-21.333333 21.333334z" fill="#2A3244" p-id="4914"></path></svg>