<?xml version="1.0" standalone="no"?><!DOCTYPE svg PUBLIC "-//W3C//DTD SVG 1.1//EN" "http://www.w3.org/Graphics/SVG/1.1/DTD/svg11.dtd"><svg t="1570779942446" class="icon" viewBox="0 0 1024 1024" version="1.1" xmlns="http://www.w3.org/2000/svg" p-id="4640" xmlns:xlink="http://www.w3.org/1999/xlink" width="200" height="200"><defs><style type="text/css"></style></defs><path d="M533.333333 512H320l106.666667-106.666667 42.666666 42.666667zM896 448l0.64 1.066667A57.28 57.28 0 0 0 874.666667 469.333333s-21.333333 42.666667-42.666667 42.666667h-64l64-234.666667h64zM874.666667 853.333333a83.328 83.328 0 0 1-2.56 20.693334 85.333333 85.333333 0 0 1-165.546667 0A83.328 83.328 0 0 1 704 853.333333a85.333333 85.333333 0 0 1 170.666667 0z" fill="#7C8691" p-id="4641"></path><path d="M106.666667 853.333333m-85.333334 0a85.333333 85.333333 0 1 0 170.666667 0 85.333333 85.333333 0 1 0-170.666667 0Z" fill="#7C8691" p-id="4642"></path><path d="M853.333333 725.333333l64 64h85.333334v85.333334h-128l-2.56-0.64A83.328 83.328 0 0 0 874.666667 853.333333a85.333333 85.333333 0 0 0-170.666667 0 83.328 83.328 0 0 0 2.56 20.693334L704 874.666667H256l-10.666667-64H618.666667l64-64 21.333333-21.333334zM1002.666667 85.333333v85.333334H234.666667a42.986667 42.986667 0 0 1-42.666667-42.666667 42.794667 42.794667 0 0 1 42.666667-42.666667z" fill="#5CE0BF" p-id="4643"></path><path d="M640 576v128H277.333333v-192h362.666667v64z" fill="#F8FAFD" p-id="4644"></path><path d="M960.213333 429.226667a169.6 169.6 0 0 0-63.573333 19.84A57.28 57.28 0 0 0 874.666667 469.333333s-21.333333 42.666667-42.666667 42.666667h-192v192H277.333333v-192H149.333333s-42.666667 170.666667-42.666666 192h85.333333l42.666667 42.666667 10.666666 64H618.666667l64-64 21.333333-21.333334h149.333333l64 64h85.333334V426.666667a351.786667 351.786667 0 0 0-42.453334 2.56z" fill="#C1CAD4" p-id="4645"></path><path d="M277.333333 512H149.333333s-10.261333 41.024-20.693333 85.333333H277.333333zM960.213333 429.226667a169.6 169.6 0 0 0-63.573333 19.84A57.28 57.28 0 0 0 874.666667 469.333333s-21.333333 42.666667-42.666667 42.666667h-192v85.333333h192c21.333333 0 42.666667-42.666667 42.666667-42.666666a57.28 57.28 0 0 1 21.973333-20.266667 169.6 169.6 0 0 1 63.573333-19.84A351.786667 351.786667 0 0 1 1002.666667 512v-85.333333a351.786667 351.786667 0 0 0-42.453334 2.56z" fill="#F8FAFD" p-id="4646"></path><path d="M106.666667 960a106.666667 106.666667 0 1 1 106.666666-106.666667 106.794667 106.794667 0 0 1-106.666666 106.666667z m0-170.666667a64 64 0 1 0 64 64 64 64 0 0 0-64-64zM789.333333 960a106.304 106.304 0 0 1-103.488-80.874667A103.552 103.552 0 0 1 682.666667 853.333333a106.666667 106.666667 0 0 1 213.333333 0 105.088 105.088 0 0 1-3.2 25.92A106.346667 106.346667 0 0 1 789.333333 960z m0-170.666667a64 64 0 0 0-64 64 64 64 0 0 0 126.058667 15.573334v-0.213334A63.232 63.232 0 0 0 853.333333 853.333333a64 64 0 0 0-64-64z" fill="#2A3244" p-id="4647"></path><path d="M704 896H256a21.333333 21.333333 0 0 1-21.034667-17.834667l-20.224-121.258666L183.168 725.333333H72.832l-36.416 36.416-30.165333-30.165333 42.666666-42.666667A21.333333 21.333333 0 0 1 64 682.666667h128a21.333333 21.333333 0 0 1 15.082667 6.250666l42.666666 42.666667a21.333333 21.333333 0 0 1 5.952 11.584L274.069333 853.333333H704z" fill="#2A3244" p-id="4648"></path><path d="M128 704H85.333333c0-22.229333 33.152-156.544 43.306667-197.184A21.333333 21.333333 0 0 1 149.333333 490.666667h602.368l59.733334-218.944A21.333333 21.333333 0 0 1 832 256h64a21.333333 21.333333 0 0 1 21.333333 21.333333v170.666667h-42.666666v-149.333333h-26.368l-59.733334 218.944A21.333333 21.333333 0 0 1 768 533.333333H166.016C146.922667 610.538667 128.298667 691.882667 128 704z" fill="#2A3244" p-id="4649"></path><path d="M1002.666667 896h-128v-42.666667h106.666666V448.682667a346.88 346.88 0 0 0-18.56 1.728 150.762667 150.762667 0 0 0-55.466666 17.066666 41.834667 41.834667 0 0 0-13.930667 11.989334C887.466667 491.648 864 533.333333 832 533.333333h-64v-42.666666h64a89.258667 89.258667 0 0 0 23.594667-30.912 77.397333 77.397333 0 0 1 30.058666-28.992 193.386667 193.386667 0 0 1 71.722667-22.677334A372.608 372.608 0 0 1 1002.666667 405.333333a21.333333 21.333333 0 0 1 21.333333 21.333334v448a21.333333 21.333333 0 0 1-21.333333 21.333333z" fill="#2A3244" p-id="4650"></path><path d="M618.666667 832H234.666667v-42.666667h375.168l79.082666-79.082666A21.333333 21.333333 0 0 1 704 704h149.333333a21.333333 21.333333 0 0 1 15.082667 6.250667L926.165333 768H1002.666667v42.666667h-85.333334a21.333333 21.333333 0 0 1-15.082666-6.250667L844.501333 746.666667h-131.669333l-79.082667 79.082666A21.333333 21.333333 0 0 1 618.666667 832zM1002.666667 192H234.666667a64.32 64.32 0 0 1-64-64 64 64 0 0 1 64-64h768a21.333333 21.333333 0 0 1 21.333333 21.333333v85.333334a21.333333 21.333333 0 0 1-21.333333 21.333333zM234.666667 106.666667a21.333333 21.333333 0 0 0-21.333334 21.333333 20.416 20.416 0 0 0 6.144 14.805333A20.778667 20.778667 0 0 0 234.666667 149.333333h746.666666V106.666667z" fill="#2A3244" p-id="4651"></path><path d="M640 725.333333H277.333333a21.333333 21.333333 0 0 1-21.333333-21.333333V170.666667h42.666667v512h320V170.666667h42.666666v533.333333a21.333333 21.333333 0 0 1-21.333333 21.333333z" fill="#2A3244" p-id="4652"></path><path d="M576 554.666667h64v42.666666h-64zM518.250667 527.082667L426.666667 435.498667l-91.584 91.584-30.165334-30.165334 106.666667-106.666666a21.333333 21.333333 0 0 1 30.165333 0l106.666667 106.666666z" fill="#2A3244" p-id="4653"></path><path d="M454.250667 432.896l42.666666-42.666667 30.165334 30.186667-42.666667 42.666667z" fill="#2A3244" p-id="4654"></path><path d="M454.250667 377.770667l30.165333-30.165334 85.333333 85.333334-30.165333 30.165333zM938.666667 170.666667h42.666666v256h-42.666666z" fill="#2A3244" p-id="4655"></path></svg>