<?xml version="1.0" standalone="no"?><!DOCTYPE svg PUBLIC "-//W3C//DTD SVG 1.1//EN" "http://www.w3.org/Graphics/SVG/1.1/DTD/svg11.dtd"><svg t="1570779939348" class="icon" viewBox="0 0 1024 1024" version="1.1" xmlns="http://www.w3.org/2000/svg" p-id="4504" xmlns:xlink="http://www.w3.org/1999/xlink" width="200" height="200"><defs><style type="text/css"></style></defs><path d="M1002.691413 554.666667v106.666666h-128a85.333333 85.333333 0 0 0-85.333333-85.333333l154.88-61.866667A42.666667 42.666667 0 0 1 1002.691413 553.6z" fill="#C1CAD4" p-id="4505"></path><path d="M1002.691413 405.333333v148.266667a42.666667 42.666667 0 0 0-58.453333-39.466667L789.35808 576a85.333333 85.333333 0 0 0-85.333333 85.333333H320.024747a85.333333 85.333333 0 0 0-85.333334-85.333333h426.666667a160 160 0 0 1 128-64v-106.666667z" fill="#F8FAFD" p-id="4506"></path><path d="M1002.691413 277.333333l-42.666666 42.666667s42.666667 0 42.666666 85.333333H581.784747A294.656 294.656 0 0 1 682.691413 277.333333z" fill="#C1CAD4" p-id="4507"></path><path d="M789.35808 661.333333m-85.333333 0a85.333333 85.333333 0 1 0 170.666666 0 85.333333 85.333333 0 1 0-170.666666 0Z" fill="#7C8691" p-id="4508"></path><path d="M789.35808 405.333333v106.666667a160 160 0 0 0-128 64h-106.666667a384 384 0 0 1 27.093334-170.666667z" fill="#C1CAD4" p-id="4509"></path><path d="M469.35808 277.333333h213.333333a294.656 294.656 0 0 0-100.906666 128H320.024747s64-128 149.333333-128z" fill="#87D7F5" p-id="4510"></path><path d="M682.691413 277.333333a294.656 294.656 0 0 0-100.906666 128H320.024747" fill="#F8FAFD" p-id="4511"></path><path d="M362.691413 405.333333h219.093334A384 384 0 0 0 554.691413 576H320.024747s0-128 42.666666-170.666667z" fill="#C1CAD4" p-id="4512"></path><path d="M320.024747 405.333333h42.666666c-42.666667 42.666667-42.666667 170.666667-42.666666 170.666667H21.35808a197.376 197.376 0 0 1 9.6-64H85.35808a42.794667 42.794667 0 0 0 42.666667-42.666667v-29.013333z" fill="#C1CAD4" p-id="4513"></path><path d="M234.691413 661.333333m-85.333333 0a85.333333 85.333333 0 1 0 170.666667 0 85.333333 85.333333 0 1 0-170.666667 0Z" fill="#7C8691" p-id="4514"></path><path d="M21.35808 576h213.333333a85.333333 85.333333 0 0 0-85.333333 85.333333H21.35808z" fill="#F8FAFD" p-id="4515"></path><path d="M128.024747 440.32V469.333333a42.794667 42.794667 0 0 1-42.666667 42.666667H30.95808A99.093333 99.093333 0 0 1 85.35808 448z" fill="#F3596B" p-id="4516"></path><path d="M1002.691413 277.333333H682.691413a288 288 0 0 0-47.488 42.666667H960.024747z" fill="#7C8691" p-id="4517"></path><path d="M234.691413 768a106.666667 106.666667 0 1 1 106.666667-106.666667 106.794667 106.794667 0 0 1-106.666667 106.666667z m0-170.666667a64 64 0 1 0 64 64 64 64 0 0 0-64-64z" fill="#2A3244" p-id="4518"></path><path d="M149.35808 682.666667H21.35808a21.333333 21.333333 0 0 1-21.333333-21.333334v-85.333333a21.333333 21.333333 0 0 1 21.333333-21.333333h629.589333A182.016 182.016 0 0 1 768.024747 491.861333V426.666667H320.024747v-42.666667h469.333333a21.333333 21.333333 0 0 1 21.333333 21.333333v106.666667a21.333333 21.333333 0 0 1-21.333333 21.333333 138.24 138.24 0 0 0-110.250667 54.506667A21.333333 21.333333 0 0 1 661.35808 597.333333H42.691413v42.666667h106.666667z" fill="#2A3244" p-id="4519"></path><path d="M789.35808 768a106.666667 106.666667 0 1 1 106.666667-106.666667 106.794667 106.794667 0 0 1-106.666667 106.666667z m0-170.666667a64 64 0 1 0 64 64 64 64 0 0 0-64-64z" fill="#2A3244" p-id="4520"></path><path d="M797.272747 595.818667l-15.829334-39.637334 154.88-61.866666A63.893333 63.893333 0 0 1 1024.024747 553.6h-42.666667a21.333333 21.333333 0 0 0-29.12-19.690667z" fill="#2A3244" p-id="4521"></path><path d="M1002.691413 682.666667h-128v-42.666667h106.666667v-85.333333h42.666667v106.666666a21.333333 21.333333 0 0 1-21.333334 21.333334zM320.024747 640h384v42.666667H320.024747zM981.35808 554.666667v-149.333334h42.666667v148.266667L981.35808 554.666667z" fill="#2A3244" p-id="4522"></path><path d="M42.691413 576H0.024747a219.029333 219.029333 0 0 1 10.666666-70.890667 120.512 120.512 0 0 1 67.84-77.354666 20.117333 20.117333 0 0 1 2.965334-0.746667L306.09408 386.133333C323.95008 354.368 385.923413 256 469.35808 256h533.333333a21.333333 21.333333 0 0 1 15.082667 36.416l-22.293333 22.293333C1010.264747 328.832 1024.024747 355.392 1024.024747 405.333333a21.333333 21.333333 0 0 1-21.333334 21.333334H789.35808v-42.666667h190.890667c-3.584-31.445333-14.933333-41.834667-21.333334-42.666667a20.522667 20.522667 0 0 1-19.2-13.162666 21.525333 21.525333 0 0 1 5.226667-23.210667l6.250667-6.293333H469.35808c-59.178667 0-114.090667 83.882667-130.133333 116.202666a21.333333 21.333333 0 0 1-15.274667 11.456L91.160747 468.629333a81.962667 81.962667 0 0 0-39.936 50.346667A176.384 176.384 0 0 0 42.691413 576z" fill="#2A3244" p-id="4523"></path><path d="M341.35808 576h-42.666667c0-13.994667 1.365333-138.218667 48.917334-185.749333l30.165333 30.165333C351.320747 446.890667 341.35808 529.898667 341.35808 576zM533.48608 578.325333a403.2 403.2 0 0 1 28.586667-181.162666 315.733333 315.733333 0 0 1 108.202666-137.173334l24.832 34.688a273.770667 273.770667 0 0 0-93.653333 118.912 366.208 366.208 0 0 0-25.6 160zM85.35808 533.333333H21.35808v-42.666666h64a21.333333 21.333333 0 0 0 21.333333-21.333334v-42.666666h42.666667v42.666666a64 64 0 0 1-64 64z" fill="#2A3244" p-id="4524"></path></svg>