<?xml version="1.0" standalone="no"?><!DOCTYPE svg PUBLIC "-//W3C//DTD SVG 1.1//EN" "http://www.w3.org/Graphics/SVG/1.1/DTD/svg11.dtd"><svg t="1570779957045" class="icon" viewBox="0 0 1024 1024" version="1.1" xmlns="http://www.w3.org/2000/svg" p-id="5030" xmlns:xlink="http://www.w3.org/1999/xlink" width="200" height="200"><defs><style type="text/css"></style></defs><path d="M832.000213 704a42.666667 42.666667 0 1 0-42.666666 42.666667 42.794667 42.794667 0 0 0 42.666666-42.666667z m-42.666666-106.666667a106.666667 106.666667 0 1 1-106.666667 106.666667 106.666667 106.666667 0 0 1 106.666667-106.666667zM277.333547 704a42.666667 42.666667 0 1 0-42.666667 42.666667 42.794667 42.794667 0 0 0 42.666667-42.666667z m-42.666667-106.666667a106.666667 106.666667 0 1 1-106.666667 106.666667 106.666667 106.666667 0 0 1 106.666667-106.666667z" fill="#C1CAD4" p-id="5031"></path><path d="M789.333547 704m-42.666667 0a42.666667 42.666667 0 1 0 85.333333 0 42.666667 42.666667 0 1 0-85.333333 0Z" fill="#7C8691" p-id="5032"></path><path d="M234.66688 704m-42.666667 0a42.666667 42.666667 0 1 0 85.333334 0 42.666667 42.666667 0 1 0-85.333334 0Z" fill="#7C8691" p-id="5033"></path><path d="M448.000213 426.666667a42.794667 42.794667 0 0 1 42.666667 42.666666 42.986667 42.986667 0 0 1-42.666667 42.666667h-64v-85.333333h64z" fill="#7C8691" p-id="5034"></path><path d="M832.000213 384v85.333333h-192v-128h149.333334a42.794667 42.794667 0 0 1 42.666666 42.666667zM640.000213 341.333333v128h-149.333333a42.794667 42.794667 0 0 0-42.666667-42.666666h-21.333333l30.933333-61.653334A42.666667 42.666667 0 0 1 495.78688 341.333333z" fill="#87D7F5" p-id="5035"></path><path d="M789.333547 341.333333a42.794667 42.794667 0 0 1 42.666666 42.666667v85.333333h-192M640.000213 341.333333v128h-149.333333" fill="#F8FAFD" p-id="5036"></path><path d="M149.333547 469.333333v85.333334H28.800213A127.594667 127.594667 0 0 1 149.333547 469.333333z" fill="#F3596B" p-id="5037"></path><path d="M322.34688 422.186667l59.306667-119.04A85.76 85.76 0 0 1 458.02688 256h358.826667a128 128 0 0 1 114.56 70.826667L1002.66688 469.333333v234.666667h-106.666667a106.666667 106.666667 0 0 0-213.333333 0H341.333547a106.666667 106.666667 0 0 0-213.333334 0H21.333547v-106.666667a123.733333 123.733333 0 0 1 7.466666-42.666666H149.333547v-85.333334h96.64a85.76 85.76 0 0 0 76.373333-47.146666zM384.000213 426.666667v85.333333h64a42.986667 42.986667 0 0 0 42.666667-42.666667h341.333333v-85.333333a42.794667 42.794667 0 0 0-42.666666-42.666667H495.78688a42.666667 42.666667 0 0 0-38.186667 23.68L426.66688 426.666667z" fill="#4FD3B2" p-id="5038"></path><path d="M234.66688 832a128 128 0 1 1 128-128 128.128 128.128 0 0 1-128 128z m0-213.333333a85.333333 85.333333 0 1 0 85.333333 85.333333 85.333333 85.333333 0 0 0-85.333333-85.333333z" fill="#2A3244" p-id="5039"></path><path d="M234.66688 768a64 64 0 1 1 64-64 64 64 0 0 1-64 64z m0-85.333333a21.333333 21.333333 0 1 0 21.333333 21.333333 21.333333 21.333333 0 0 0-21.333333-21.333333zM789.333547 768a64 64 0 1 1 64-64 64 64 0 0 1-64 64z m0-85.333333a21.333333 21.333333 0 1 0 21.333333 21.333333 21.333333 21.333333 0 0 0-21.333333-21.333333z" fill="#2A3244" p-id="5040"></path><path d="M789.333547 832a128 128 0 1 1 128-128 128.128 128.128 0 0 1-128 128z m0-213.333333a85.333333 85.333333 0 1 0 85.333333 85.333333 85.333333 85.333333 0 0 0-85.333333-85.333333z" fill="#2A3244" p-id="5041"></path><path d="M1002.66688 725.333333h-106.666667v-42.666666h85.333334v-208.298667l-68.992-138.005333A106.24 106.24 0 0 0 816.853547 277.333333H458.02688a64.832 64.832 0 0 0-57.344 35.413334l-59.221333 118.954666A107.861333 107.861333 0 0 1 245.973547 490.666667H149.333547a106.176 106.176 0 0 0-100.394667 70.997333A104 104 0 0 0 42.66688 597.333333v85.333334h85.333333v42.666666H21.333547a21.333333 21.333333 0 0 1-21.333334-21.333333v-106.666667a145.6 145.6 0 0 1 8.746667-49.984A148.778667 148.778667 0 0 1 149.333547 448h96.64a64.832 64.832 0 0 0 57.344-35.413333l59.221333-118.954667A107.861333 107.861333 0 0 1 458.02688 234.666667h358.826667a148.672 148.672 0 0 1 133.653333 82.624l71.253333 142.506666A21.333333 21.333333 0 0 1 1024.000213 469.333333v234.666667a21.333333 21.333333 0 0 1-21.333333 21.333333z" fill="#2A3244" p-id="5042"></path><path d="M341.333547 682.666667h341.333333v42.666666H341.333547zM448.000213 533.333333h-64a21.333333 21.333333 0 0 1-21.333333-21.333333v-85.333333a21.333333 21.333333 0 0 1 21.333333-21.333334h64a64 64 0 0 1 64 64 64.362667 64.362667 0 0 1-64 64z m-42.666666-42.666666h42.666666a20.416 20.416 0 0 0 14.805334-6.144A20.864 20.864 0 0 0 469.333547 469.333333a21.333333 21.333333 0 0 0-21.333334-21.333333h-42.666666zM149.333547 576H21.333547v-42.666667h106.666666v-64h42.666667v85.333334a21.333333 21.333333 0 0 1-21.333333 21.333333z" fill="#2A3244" p-id="5043"></path><path d="M832.000213 490.666667H490.66688v-42.666667h320v-64a21.333333 21.333333 0 0 0-21.333333-21.333333H495.78688a21.333333 21.333333 0 0 0-19.093333 11.882666l-30.954667 61.674667-38.144-19.2 30.954667-61.653333A63.658667 63.658667 0 0 1 495.78688 320H789.333547a64 64 0 0 1 64 64v85.333333a21.333333 21.333333 0 0 1-21.333334 21.333334z" fill="#2A3244" p-id="5044"></path><path d="M618.66688 341.333333h42.666667v128h-42.666667z" fill="#2A3244" p-id="5045"></path></svg>