<?xml version="1.0" standalone="no"?><!DOCTYPE svg PUBLIC "-//W3C//DTD SVG 1.1//EN" "http://www.w3.org/Graphics/SVG/1.1/DTD/svg11.dtd"><svg t="1570779936094" class="icon" viewBox="0 0 1024 1024" version="1.1" xmlns="http://www.w3.org/2000/svg" p-id="4373" xmlns:xlink="http://www.w3.org/1999/xlink" width="200" height="200"><defs><style type="text/css"></style></defs><path d="M490.666667 490.666667h512v64H490.666667z" fill="#5CE0BF" p-id="4374"></path><path d="M192 618.666667h256a42.794667 42.794667 0 0 0 42.666667-42.666667v-21.333333h512v192a42.794667 42.794667 0 0 1-42.666667 42.666666h-64a106.666667 106.666667 0 0 0-213.333333 0H384a106.666667 106.666667 0 0 0-213.333333 0H149.333333v-128a42.794667 42.794667 0 0 1 42.666667-42.666666z" fill="#64A6F0" p-id="4375"></path><path d="M789.333333 789.333333m-42.666666 0a42.666667 42.666667 0 1 0 85.333333 0 42.666667 42.666667 0 1 0-85.333333 0Z" fill="#C1CAD4" p-id="4376"></path><path d="M277.333333 789.333333m-42.666666 0a42.666667 42.666667 0 1 0 85.333333 0 42.666667 42.666667 0 1 0-85.333333 0Z" fill="#C1CAD4" p-id="4377"></path><path d="M789.333333 682.666667a106.666667 106.666667 0 1 1-106.666666 106.666666 106.666667 106.666667 0 0 1 106.666666-106.666666z m42.666667 106.666666a42.666667 42.666667 0 1 0-42.666667 42.666667 42.794667 42.794667 0 0 0 42.666667-42.666667zM320 789.333333a42.666667 42.666667 0 1 0-42.666667 42.666667 42.794667 42.794667 0 0 0 42.666667-42.666667z m-42.666667-106.666666a106.666667 106.666667 0 1 1-106.666666 106.666666 106.666667 106.666667 0 0 1 106.666666-106.666666z" fill="#C1CAD4" p-id="4378"></path><path d="M106.666667 426.666667h21.333333a106.666667 106.666667 0 0 1-106.666667 106.666666v-21.333333a85.333333 85.333333 0 0 1 85.333334-85.333333z" fill="#F3596B" p-id="4379"></path><path d="M490.666667 384v-170.666667h-114.346667a42.666667 42.666667 0 0 0-41.813333 34.346667L320 384z m0 170.666667v21.333333a42.794667 42.794667 0 0 1-42.666667 42.666667H192a42.794667 42.794667 0 0 0-42.666667 42.666666v128H64a42.794667 42.794667 0 0 1-42.666667-42.666666V533.333333a106.666667 106.666667 0 0 0 106.666667-106.666666h21.333333a85.333333 85.333333 0 0 0 85.333334-85.333334v-85.333333a128 128 0 0 1 128-128h554.666666a85.333333 85.333333 0 0 1 85.333334 85.333333v277.333334H490.666667z m426.666666-170.666667v-170.666667h-128v170.666667z m-213.333333 0v-170.666667h-128v170.666667z" fill="#F8FAFD" p-id="4380"></path><path d="M789.333333 213.333333h128v170.666667h-128zM576 213.333333h128v170.666667h-128zM490.666667 213.333333v170.666667h-170.666667l14.506667-136.32A42.666667 42.666667 0 0 1 376.32 213.333333z" fill="#87D7F5" p-id="4381"></path><path d="M917.333333 213.333333v170.666667h-128M704 213.333333v170.666667h-128M490.666667 213.333333v170.666667h-170.666667" fill="#F8FAFD" p-id="4382"></path><path d="M1002.666667 554.666667H490.666667v21.333333a42.794667 42.794667 0 0 1-42.666667 42.666667h554.666667z" fill="#5597E6" p-id="4383"></path><path d="M384 768h298.666667v42.666667H384z" fill="#2A3244" p-id="4384"></path><path d="M960 810.666667h-64v-42.666667h64a21.333333 21.333333 0 0 0 21.333333-21.333333V213.333333a64 64 0 0 0-64-64H362.666667a106.794667 106.794667 0 0 0-106.666667 106.666667v85.333333a106.794667 106.794667 0 0 1-106.666667 106.666667H106.666667a64 64 0 0 0-64 64v234.666667a21.333333 21.333333 0 0 0 21.333333 21.333333h106.666667v42.666667H64a64 64 0 0 1-64-64V512a106.794667 106.794667 0 0 1 106.666667-106.666667h42.666666a64 64 0 0 0 64-64v-85.333333a149.504 149.504 0 0 1 149.333334-149.333333h554.666666a106.794667 106.794667 0 0 1 106.666667 106.666666v533.333334a64 64 0 0 1-64 64z" fill="#2A3244" p-id="4385"></path><path d="M277.333333 917.333333a128 128 0 1 1 128-128 128.128 128.128 0 0 1-128 128z m0-213.333333a85.333333 85.333333 0 1 0 85.333334 85.333333 85.333333 85.333333 0 0 0-85.333334-85.333333zM789.333333 917.333333a128 128 0 1 1 128-128 128.128 128.128 0 0 1-128 128z m0-213.333333a85.333333 85.333333 0 1 0 85.333334 85.333333 85.333333 85.333333 0 0 0-85.333334-85.333333zM490.666667 405.333333h-170.666667a21.333333 21.333333 0 0 1-21.205333-23.594666l14.506666-136.32A64.64 64.64 0 0 1 376.32 192H490.666667a21.333333 21.333333 0 0 1 21.333333 21.333333v170.666667a21.333333 21.333333 0 0 1-21.333333 21.333333z m-146.965334-42.666666H469.333333v-128h-93.013333a21.482667 21.482667 0 0 0-20.906667 17.258666zM704 405.333333h-128a21.333333 21.333333 0 0 1-21.333333-21.333333v-170.666667a21.333333 21.333333 0 0 1 21.333333-21.333333h128a21.333333 21.333333 0 0 1 21.333333 21.333333v170.666667a21.333333 21.333333 0 0 1-21.333333 21.333333z m-106.666667-42.666666h85.333334v-128h-85.333334zM917.333333 405.333333h-128a21.333333 21.333333 0 0 1-21.333333-21.333333v-170.666667a21.333333 21.333333 0 0 1 21.333333-21.333333h128a21.333333 21.333333 0 0 1 21.333334 21.333333v170.666667a21.333333 21.333333 0 0 1-21.333334 21.333333z m-106.666666-42.666666h85.333333v-128h-85.333333zM21.333333 554.666667v-42.666667a85.333333 85.333333 0 0 0 85.333334-85.333333h42.666666a128.128 128.128 0 0 1-128 128z" fill="#2A3244" p-id="4386"></path><path d="M170.666667 789.333333H128v-128a64 64 0 0 1 64-64h256a21.333333 21.333333 0 0 0 21.333333-21.333333v-192h42.666667v192a64 64 0 0 1-64 64H192a21.333333 21.333333 0 0 0-21.333333 21.333333z" fill="#2A3244" p-id="4387"></path><path d="M426.666667 448h64v42.666667h-64zM490.666667 533.333333h512v42.666667H490.666667zM490.666667 469.333333h512v42.666667H490.666667zM789.333333 853.333333a64 64 0 1 1 64-64 64 64 0 0 1-64 64z m0-85.333333a21.333333 21.333333 0 1 0 21.333334 21.333333 21.333333 21.333333 0 0 0-21.333334-21.333333zM277.333333 853.333333a64 64 0 1 1 64-64 64 64 0 0 1-64 64z m0-85.333333a21.333333 21.333333 0 1 0 21.333334 21.333333 21.333333 21.333333 0 0 0-21.333334-21.333333z" fill="#2A3244" p-id="4388"></path></svg>