<?xml version="1.0" standalone="no"?><!DOCTYPE svg PUBLIC "-//W3C//DTD SVG 1.1//EN" "http://www.w3.org/Graphics/SVG/1.1/DTD/svg11.dtd"><svg t="1570779975995" class="icon" viewBox="0 0 1024 1024" version="1.1" xmlns="http://www.w3.org/2000/svg" p-id="5705" xmlns:xlink="http://www.w3.org/1999/xlink" width="200" height="200"><defs><style type="text/css"></style></defs><path d="M874.666667 704m-64 0a64 64 0 1 0 128 0 64 64 0 1 0-128 0Z" fill="#C1CAD4" p-id="5706"></path><path d="M192 704m-64 0a64 64 0 1 0 128 0 64 64 0 1 0-128 0Z" fill="#C1CAD4" p-id="5707"></path><path d="M661.333333 426.666667h128v85.333333h-128zM533.333333 426.666667h128v85.333333h-128zM405.333333 426.666667h128v85.333333h-128zM320 426.666667v85.333333H106.666667a147.2 147.2 0 0 0 112.64-44.586667A103.082667 103.082667 0 0 1 298.88 426.666667z" fill="#87D7F5" p-id="5708"></path><path d="M1002.666667 533.333333v170.666667h-64a64 64 0 0 0-128 0H256a64 64 0 0 0-128 0H21.333333v-106.666667a85.333333 85.333333 0 0 1 85.333334-85.333333h213.333333v-85.333333h85.333333v85.333333h384v-85.333333h64a64 64 0 0 1 64 64h42.666667a42.794667 42.794667 0 0 1 42.666667 42.666666z" fill="#F8FAFD" p-id="5709"></path><path d="M192 789.333333a85.333333 85.333333 0 1 1 85.333333-85.333333 85.333333 85.333333 0 0 1-85.333333 85.333333z m0-128a42.666667 42.666667 0 1 0 42.666667 42.666667 42.666667 42.666667 0 0 0-42.666667-42.666667zM874.666667 789.333333a85.333333 85.333333 0 1 1 85.333333-85.333333 85.333333 85.333333 0 0 1-85.333333 85.333333z m0-128a42.666667 42.666667 0 1 0 42.666666 42.666667 42.666667 42.666667 0 0 0-42.666666-42.666667z" fill="#2A3244" p-id="5710"></path><path d="M128 725.333333H21.333333a21.333333 21.333333 0 0 1-21.333333-21.333333v-106.666667a106.794667 106.794667 0 0 1 106.666667-106.666666v42.666666a64 64 0 0 0-64 64v85.333334h85.333333zM256 682.666667h554.666667v42.666666H256zM1002.666667 725.333333h-64v-42.666666h42.666666v-149.333334a21.333333 21.333333 0 0 0-21.333333-21.333333h-42.666667a21.333333 21.333333 0 0 1-21.333333-21.333333 42.666667 42.666667 0 0 0-42.666667-42.666667h-64v-42.666667h64a85.504 85.504 0 0 1 82.645334 64H960a64 64 0 0 1 64 64v170.666667a21.333333 21.333333 0 0 1-21.333333 21.333333z" fill="#2A3244" p-id="5711"></path><path d="M106.666667 533.333333v-42.666666a128 128 0 0 0 96.149333-36.8A124.629333 124.629333 0 0 1 298.88 405.333333H405.333333v42.666667h-106.453333a81.344 81.344 0 0 0-62.976 32.832A169.045333 169.045333 0 0 1 106.666667 533.333333z" fill="#2A3244" p-id="5712"></path><path d="M320 533.333333H106.666667v-42.666666h192v-64h42.666666v85.333333a21.333333 21.333333 0 0 1-21.333333 21.333333zM789.333333 533.333333H405.333333a21.333333 21.333333 0 0 1-21.333333-21.333333v-85.333333a21.333333 21.333333 0 0 1 21.333333-21.333334h384a21.333333 21.333333 0 0 1 21.333334 21.333334v85.333333a21.333333 21.333333 0 0 1-21.333334 21.333333z m-362.666666-42.666666h341.333333v-42.666667H426.666667z" fill="#2A3244" p-id="5713"></path><path d="M512 426.666667h42.666667v85.333333h-42.666667zM640 426.666667h42.666667v85.333333h-42.666667z" fill="#2A3244" p-id="5714"></path></svg>