<?xml version="1.0" standalone="no"?><!DOCTYPE svg PUBLIC "-//W3C//DTD SVG 1.1//EN" "http://www.w3.org/Graphics/SVG/1.1/DTD/svg11.dtd"><svg t="1570779959826" class="icon" viewBox="0 0 1024 1024" version="1.1" xmlns="http://www.w3.org/2000/svg" p-id="5161" xmlns:xlink="http://www.w3.org/1999/xlink" width="200" height="200"><defs><style type="text/css"></style></defs><path d="M746.666667 405.333333h85.333333v85.333334h-85.333333z" fill="#87D7F5" p-id="5162"></path><path d="M170.666667 405.333333h149.333333v128H170.666667zM384 320h128v298.666667h-128z" fill="#C1CAD4" p-id="5163"></path><path d="M106.666667 405.333333a147.2 147.2 0 0 0 112.64-44.586666A103.082667 103.082667 0 0 1 298.88 320H320v85.333333H106.666667zM597.333333 405.333333h85.333334v85.333334h-85.333334z" fill="#87D7F5" p-id="5164"></path><path d="M832 405.333333v85.333334h-85.333333M682.666667 405.333333v85.333334h-85.333334" fill="#F8FAFD" p-id="5165"></path><path d="M1002.666667 469.333333v106.666667a42.794667 42.794667 0 0 1-42.666667 42.666667H512V320h341.333333a64 64 0 0 1 64 64 85.333333 85.333333 0 0 1 85.333334 85.333333z m-170.666667 21.333334v-85.333334h-85.333333v85.333334z m-149.333333 0v-85.333334h-85.333334v85.333334zM384 320v298.666667H64a42.794667 42.794667 0 0 1-42.666667-42.666667v-85.333333a85.333333 85.333333 0 0 1 85.333334-85.333334h64v128h149.333333V320z" fill="#7C8691" p-id="5166"></path><path d="M106.666667 682.666667h128v234.666666H106.666667zM789.333333 682.666667h128v234.666666h-128z" fill="#64A6F0" p-id="5167"></path><path d="M106.666667 682.666667h64v234.666666H106.666667zM789.333333 682.666667h64v234.666666h-64z" fill="#5597E6" p-id="5168"></path><path d="M384 320h128v85.333333h-128z" fill="#7C8691" p-id="5169"></path><path d="M320 426.666667H106.666667v-42.666667h192v-64h42.666666v85.333333a21.333333 21.333333 0 0 1-21.333333 21.333334z" fill="#2A3244" p-id="5170"></path><path d="M384 640H64a64 64 0 0 1-64-64v-85.333333a106.794667 106.794667 0 0 1 106.666667-106.666667v42.666667a64 64 0 0 0-64 64v85.333333a21.333333 21.333333 0 0 0 21.333333 21.333333h320zM960 640H512v-42.666667h448a21.333333 21.333333 0 0 0 21.333333-21.333333v-106.666667a64 64 0 0 0-64-64 21.333333 21.333333 0 0 1-21.333333-21.333333 42.666667 42.666667 0 0 0-42.666667-42.666667H512v-42.666666h341.333333a85.461333 85.461333 0 0 1 83.050667 65.706666A106.837333 106.837333 0 0 1 1024 469.333333v106.666667a64 64 0 0 1-64 64z" fill="#2A3244" p-id="5171"></path><path d="M106.666667 426.666667v-42.666667a128 128 0 0 0 96.149333-36.8A124.629333 124.629333 0 0 1 298.88 298.666667H384v42.666666h-85.12a81.344 81.344 0 0 0-62.976 32.832A169.045333 169.045333 0 0 1 106.666667 426.666667z" fill="#2A3244" p-id="5172"></path><path d="M512 640h-128a21.333333 21.333333 0 0 1-21.333333-21.333333V320a21.333333 21.333333 0 0 1 21.333333-21.333333h128a21.333333 21.333333 0 0 1 21.333333 21.333333v298.666667a21.333333 21.333333 0 0 1-21.333333 21.333333z m-106.666667-42.666667h85.333334V341.333333h-85.333334zM682.666667 512h-85.333334a21.333333 21.333333 0 0 1-21.333333-21.333333v-85.333334a21.333333 21.333333 0 0 1 21.333333-21.333333h85.333334a21.333333 21.333333 0 0 1 21.333333 21.333333v85.333334a21.333333 21.333333 0 0 1-21.333333 21.333333z m-64-42.666667h42.666666v-42.666666h-42.666666zM832 512h-85.333333a21.333333 21.333333 0 0 1-21.333334-21.333333v-85.333334a21.333333 21.333333 0 0 1 21.333334-21.333333h85.333333a21.333333 21.333333 0 0 1 21.333333 21.333333v85.333334a21.333333 21.333333 0 0 1-21.333333 21.333333z m-64-42.666667h42.666667v-42.666666h-42.666667zM320 554.666667H170.666667a21.333333 21.333333 0 0 1-21.333334-21.333334v-128h42.666667v106.666667h106.666667v-106.666667h42.666666v128a21.333333 21.333333 0 0 1-21.333333 21.333334zM85.333333 682.666667h42.666667v234.666666H85.333333zM213.333333 682.666667h42.666667v149.333333h-42.666667zM213.333333 874.666667h42.666667v42.666666h-42.666667zM149.333333 682.666667h42.666667v106.666666H149.333333zM768 682.666667h42.666667v106.666666h-42.666667zM896 682.666667h42.666667v149.333333h-42.666667zM896 874.666667h42.666667v42.666666h-42.666667zM832 682.666667h42.666667v85.333333h-42.666667zM768 832h42.666667v85.333333h-42.666667zM832 853.333333h42.666667v42.666667h-42.666667z" fill="#2A3244" p-id="5173"></path></svg>