<?xml version="1.0" standalone="no"?><!DOCTYPE svg PUBLIC "-//W3C//DTD SVG 1.1//EN" "http://www.w3.org/Graphics/SVG/1.1/DTD/svg11.dtd"><svg t="1570779988286" class="icon" viewBox="0 0 1024 1024" version="1.1" xmlns="http://www.w3.org/2000/svg" p-id="6120" xmlns:xlink="http://www.w3.org/1999/xlink" width="200" height="200"><defs><style type="text/css"></style></defs><path d="M106.675627 558.933333V640H21.76896a84.565333 84.565333 0 0 1 68.266667-77.653333z" fill="#F3596B" p-id="6121"></path><path d="M832.00896 789.333333m-85.333333 0a85.333333 85.333333 0 1 0 170.666666 0 85.333333 85.333333 0 1 0-170.666666 0Z" fill="#7C8691" p-id="6122"></path><path d="M234.675627 789.333333m-85.333334 0a85.333333 85.333333 0 1 0 170.666667 0 85.333333 85.333333 0 1 0-170.666667 0Z" fill="#7C8691" p-id="6123"></path><path d="M448.00896 405.333333h192v384h-192z" fill="#87D7F5" p-id="6124"></path><path d="M640.00896 405.333333v384h-192" fill="#F8FAFD" p-id="6125"></path><path d="M832.00896 405.333333h106.666667v128h-106.666667zM725.342293 405.333333h106.666667v128h-106.666667zM362.675627 448v42.666667a42.794667 42.794667 0 0 1-42.666667 42.666666h-85.333333v-128h85.333333a42.794667 42.794667 0 0 1 42.666667 42.666667z" fill="#87D7F5" p-id="6126"></path><path d="M938.675627 405.333333v128h-106.666667M832.00896 405.333333v128h-106.666667M362.675627 448v42.666667a42.794667 42.794667 0 0 1-42.666667 42.666666h-85.333333" fill="#F8FAFD" p-id="6127"></path><path d="M234.675627 320a85.333333 85.333333 0 0 1 85.333333-85.333333h597.333333a85.333333 85.333333 0 0 1 85.333334 85.333333z" fill="#F3B55E" p-id="6128"></path><path d="M938.675627 405.333333H725.342293v128h213.333334z m64-85.333333v469.333333h-85.333334a85.333333 85.333333 0 0 0-170.666666 0h-106.666667V405.333333h-192v384h-128a85.333333 85.333333 0 0 0-170.666667 0H21.342293v-143.36a28.16 28.16 0 0 1 0.426667-5.973333H106.675627v-81.066667l128-25.6h85.333333a42.794667 42.794667 0 0 0 42.666667-42.666666v-42.666667a42.794667 42.794667 0 0 0-42.666667-42.666667h-85.333333v-85.333333z" fill="#FFCA6B" p-id="6129"></path><path d="M1002.675627 810.666667h-85.333334v-42.666667h64V320a64 64 0 0 0-64-64H320.00896a64 64 0 0 0-64 64v213.333333a21.333333 21.333333 0 0 1-17.066667 20.906667l-144.618666 29.013333a63.338667 63.338667 0 0 0-51.2 58.069334 22.314667 22.314667 0 0 1-0.448 3.328V768h106.666666v42.666667H21.342293a21.333333 21.333333 0 0 1-21.333333-21.333334v-143.36a52.757333 52.757333 0 0 1 0.554667-8.661333 105.92 105.92 0 0 1 85.333333-95.893333L213.342293 515.861333V320a106.794667 106.794667 0 0 1 106.666667-106.666667h597.333333a106.794667 106.794667 0 0 1 106.666667 106.666667v469.333333a21.333333 21.333333 0 0 1-21.333333 21.333334z" fill="#2A3244" p-id="6130"></path><path d="M234.675627 896a106.666667 106.666667 0 1 1 106.666666-106.666667 106.794667 106.794667 0 0 1-106.666666 106.666667z m0-170.666667a64 64 0 1 0 64 64 64 64 0 0 0-64-64zM832.00896 896a106.666667 106.666667 0 1 1 106.666667-106.666667 106.794667 106.794667 0 0 1-106.666667 106.666667z m0-170.666667a64 64 0 1 0 64 64 64 64 0 0 0-64-64zM320.00896 554.666667h-85.333333v-42.666667h85.333333a21.333333 21.333333 0 0 0 21.333333-21.333333v-42.666667a21.333333 21.333333 0 0 0-21.333333-21.333333h-85.333333v-42.666667h85.333333a64 64 0 0 1 64 64v42.666667a64 64 0 0 1-64 64zM661.342293 789.333333h-42.666666V426.666667h-149.333334v362.666666h-42.666666V405.333333a21.333333 21.333333 0 0 1 21.333333-21.333333h192a21.333333 21.333333 0 0 1 21.333333 21.333333zM938.675627 554.666667H725.342293a21.333333 21.333333 0 0 1-21.333333-21.333334v-128a21.333333 21.333333 0 0 1 21.333333-21.333333h213.333334a21.333333 21.333333 0 0 1 21.333333 21.333333v128a21.333333 21.333333 0 0 1-21.333333 21.333334z m-192-42.666667h170.666666v-85.333333h-170.666666zM106.675627 661.333333H21.76896L21.342293 618.666667h64v-64h42.666667v85.333333a21.333333 21.333333 0 0 1-21.333333 21.333333z" fill="#2A3244" p-id="6131"></path><path d="M320.00896 768h426.666667v42.666667H320.00896zM234.675627 298.666667h768v42.666666H234.675627zM810.675627 405.333333h42.666666v128h-42.666666z" fill="#2A3244" p-id="6132"></path></svg>