<?xml version="1.0" standalone="no"?><!DOCTYPE svg PUBLIC "-//W3C//DTD SVG 1.1//EN" "http://www.w3.org/Graphics/SVG/1.1/DTD/svg11.dtd"><svg t="1570779931925" class="icon" viewBox="0 0 1024 1024" version="1.1" xmlns="http://www.w3.org/2000/svg" p-id="4236" xmlns:xlink="http://www.w3.org/1999/xlink" width="200" height="200"><defs><style type="text/css"></style></defs><path d="M1002.666667 746.666667v128h-64V405.333333h-128v341.333334H64v-106.666667s0-8.746667 0.853333-21.333333H170.666667v-85.333334h85.333333a42.794667 42.794667 0 0 0 42.666667-42.666666v-170.666667h704zM746.666667 490.666667v-85.333334h-85.333334v85.333334z m-149.333334 0v-85.333334h-85.333333v85.333334z m-149.333333 0v-85.333334h-85.333333v85.333334z" fill="#E65263" p-id="4237"></path><path d="M1002.666667 106.666667v213.333333H21.333333V192a128 128 0 0 1 128-128h810.666667a42.794667 42.794667 0 0 1 42.666667 42.666667z m-128 128V149.333333h-128v85.333334z m-213.333334 0V149.333333h-128v85.333334z m-213.333333 0V149.333333h-128v85.333334z m-213.333333 0V149.333333H106.666667v85.333334z" fill="#F3596B" p-id="4238"></path><path d="M938.666667 405.333333v469.333334h-128V405.333333h128z" fill="#C1CAD4" p-id="4239"></path><path d="M746.666667 149.333333h128v85.333334h-128z" fill="#87D7F5" p-id="4240"></path><path d="M810.666667 746.666667v128a85.333333 85.333333 0 0 0-170.666667 0H320a85.333333 85.333333 0 0 0-170.666667 0H21.333333v-128h789.333334z" fill="#F3596B" p-id="4241"></path><path d="M725.333333 874.666667m-85.333333 0a85.333333 85.333333 0 1 0 170.666667 0 85.333333 85.333333 0 1 0-170.666667 0Z" fill="#C1CAD4" p-id="4242"></path><path d="M661.333333 405.333333h85.333334v85.333334h-85.333334zM533.333333 149.333333h128v85.333334h-128zM512 405.333333h85.333333v85.333334h-85.333333zM362.666667 405.333333h85.333333v85.333334h-85.333333zM320 149.333333h128v85.333334h-128z" fill="#87D7F5" p-id="4243"></path><path d="M234.666667 874.666667m-85.333334 0a85.333333 85.333333 0 1 0 170.666667 0 85.333333 85.333333 0 1 0-170.666667 0Z" fill="#C1CAD4" p-id="4244"></path><path d="M298.666667 320v170.666667a42.794667 42.794667 0 0 1-42.666667 42.666666H85.333333V320h213.333334z" fill="#87D7F5" p-id="4245"></path><path d="M298.666667 320v170.666667a42.794667 42.794667 0 0 1-42.666667 42.666666H85.333333" fill="#F8FAFD" p-id="4246"></path><path d="M106.666667 149.333333h128v85.333334H106.666667z" fill="#87D7F5" p-id="4247"></path><path d="M874.666667 149.333333v85.333334h-128M661.333333 149.333333v85.333334h-128M448 149.333333v85.333334h-128M234.666667 149.333333v85.333334H106.666667" fill="#F8FAFD" p-id="4248"></path><path d="M85.333333 545.066667A26.496 26.496 0 0 1 106.666667 533.333333h64v85.333334H64.853333A157.866667 157.866667 0 0 1 85.333333 545.066667z" fill="#FFCA6B" p-id="4249"></path><path d="M810.666667 405.333333h128v85.333334h-128z" fill="#7C8691" p-id="4250"></path><path d="M725.333333 874.666667m-42.666666 0a42.666667 42.666667 0 1 0 85.333333 0 42.666667 42.666667 0 1 0-85.333333 0Z" fill="#7C8691" p-id="4251"></path><path d="M234.666667 874.666667m-42.666667 0a42.666667 42.666667 0 1 0 85.333333 0 42.666667 42.666667 0 1 0-85.333333 0Z" fill="#7C8691" p-id="4252"></path><path d="M1002.666667 896h-64v-42.666667h42.666666V341.333333H277.333333v-42.666666h725.333334a21.333333 21.333333 0 0 1 21.333333 21.333333v554.666667a21.333333 21.333333 0 0 1-21.333333 21.333333zM149.333333 896H21.333333a21.333333 21.333333 0 0 1-21.333333-21.333333v-128a21.333333 21.333333 0 0 1 21.333333-21.333334h21.333334v-85.333333s0-9.344 0.896-22.762667a166.805333 166.805333 0 0 1 24.874666-85.205333A46.933333 46.933333 0 0 1 106.666667 512v42.666667c-0.448 0-1.813333 0-4.373334 3.349333a123.733333 123.733333 0 0 0-16.192 62.485333C85.333333 631.616 85.333333 639.68 85.333333 640v106.666667a21.333333 21.333333 0 0 1-21.333333 21.333333H42.666667v85.333333h106.666666z" fill="#2A3244" p-id="4253"></path><path d="M64 725.333333h746.666667v42.666667H64zM277.333333 341.333333H21.333333a21.333333 21.333333 0 0 1-21.333333-21.333333V192a149.525333 149.525333 0 0 1 149.333333-149.333333h810.666667a64 64 0 0 1 64 64v213.333333h-42.666667V106.666667a21.333333 21.333333 0 0 0-21.333333-21.333334H149.333333a106.794667 106.794667 0 0 0-106.666666 106.666667v106.666667h234.666666z" fill="#2A3244" p-id="4254"></path><path d="M234.666667 256H106.666667a21.333333 21.333333 0 0 1-21.333334-21.333333V149.333333a21.333333 21.333333 0 0 1 21.333334-21.333333h128a21.333333 21.333333 0 0 1 21.333333 21.333333v85.333334a21.333333 21.333333 0 0 1-21.333333 21.333333z m-106.666667-42.666667h85.333333V170.666667H128zM448 256h-128a21.333333 21.333333 0 0 1-21.333333-21.333333V149.333333a21.333333 21.333333 0 0 1 21.333333-21.333333h128a21.333333 21.333333 0 0 1 21.333333 21.333333v85.333334a21.333333 21.333333 0 0 1-21.333333 21.333333z m-106.666667-42.666667h85.333334V170.666667h-85.333334zM661.333333 256h-128a21.333333 21.333333 0 0 1-21.333333-21.333333V149.333333a21.333333 21.333333 0 0 1 21.333333-21.333333h128a21.333333 21.333333 0 0 1 21.333334 21.333333v85.333334a21.333333 21.333333 0 0 1-21.333334 21.333333z m-106.666666-42.666667h85.333333V170.666667h-85.333333zM874.666667 256h-128a21.333333 21.333333 0 0 1-21.333334-21.333333V149.333333a21.333333 21.333333 0 0 1 21.333334-21.333333h128a21.333333 21.333333 0 0 1 21.333333 21.333333v85.333334a21.333333 21.333333 0 0 1-21.333333 21.333333z m-106.666667-42.666667h85.333333V170.666667h-85.333333zM256 554.666667H85.333333v-42.666667h170.666667a21.333333 21.333333 0 0 0 21.333333-21.333333v-170.666667h42.666667v170.666667a64 64 0 0 1-64 64z" fill="#2A3244" p-id="4255"></path><path d="M170.666667 640H64.853333L64 597.333333h85.333333v-64h42.666667v85.333334a21.333333 21.333333 0 0 1-21.333333 21.333333zM64 320h42.666667v234.666667H64zM725.333333 981.333333a106.666667 106.666667 0 1 1 106.666667-106.666666 106.794667 106.794667 0 0 1-106.666667 106.666666z m0-170.666666a64 64 0 1 0 64 64 64 64 0 0 0-64-64zM234.666667 981.333333a106.666667 106.666667 0 1 1 106.666666-106.666666 106.794667 106.794667 0 0 1-106.666666 106.666666z m0-170.666666a64 64 0 1 0 64 64 64 64 0 0 0-64-64z" fill="#2A3244" p-id="4256"></path><path d="M938.666667 896h-128a21.333333 21.333333 0 0 1-21.333334-21.333333V405.333333a21.333333 21.333333 0 0 1 21.333334-21.333333h128a21.333333 21.333333 0 0 1 21.333333 21.333333v469.333334a21.333333 21.333333 0 0 1-21.333333 21.333333z m-106.666667-42.666667h85.333333V426.666667h-85.333333zM320 853.333333h320v42.666667H320zM448 512h-85.333333a21.333333 21.333333 0 0 1-21.333334-21.333333v-85.333334a21.333333 21.333333 0 0 1 21.333334-21.333333h85.333333a21.333333 21.333333 0 0 1 21.333333 21.333333v85.333334a21.333333 21.333333 0 0 1-21.333333 21.333333z m-64-42.666667h42.666667v-42.666666h-42.666667zM597.333333 512h-85.333333a21.333333 21.333333 0 0 1-21.333333-21.333333v-85.333334a21.333333 21.333333 0 0 1 21.333333-21.333333h85.333333a21.333333 21.333333 0 0 1 21.333334 21.333333v85.333334a21.333333 21.333333 0 0 1-21.333334 21.333333z m-64-42.666667h42.666667v-42.666666h-42.666667zM746.666667 512h-85.333334a21.333333 21.333333 0 0 1-21.333333-21.333333v-85.333334a21.333333 21.333333 0 0 1 21.333333-21.333333h85.333334a21.333333 21.333333 0 0 1 21.333333 21.333333v85.333334a21.333333 21.333333 0 0 1-21.333333 21.333333z m-64-42.666667h42.666666v-42.666666h-42.666666z" fill="#2A3244" p-id="4257"></path></svg>