<?xml version="1.0" standalone="no"?><!DOCTYPE svg PUBLIC "-//W3C//DTD SVG 1.1//EN" "http://www.w3.org/Graphics/SVG/1.1/DTD/svg11.dtd"><svg t="1570779991632" class="icon" viewBox="0 0 1024 1024" version="1.1" xmlns="http://www.w3.org/2000/svg" p-id="6248" xmlns:xlink="http://www.w3.org/1999/xlink" width="200" height="200"><defs><style type="text/css"></style></defs><path d="M896.010667 746.666667h106.666666a148.437333 148.437333 0 0 1-43.733333 105.6l-75.52-75.52A41.706667 41.706667 0 0 0 896.010667 746.666667zM958.944 641.066667l-75.52 75.52A41.706667 41.706667 0 0 0 853.344 704v-106.666667a148.437333 148.437333 0 0 1 105.6 43.733334zM747.744 641.066667l75.52 75.52A41.706667 41.706667 0 0 0 810.677333 746.666667h-106.666666a148.437333 148.437333 0 0 1 43.733333-105.6zM853.344 789.333333v106.666667a148.437333 148.437333 0 0 1-105.6-43.733333l75.52-75.52A41.706667 41.706667 0 0 0 853.344 789.333333zM213.344 746.666667h106.666667a148.437333 148.437333 0 0 1-43.733334 105.6l-75.52-75.52A41.706667 41.706667 0 0 0 213.344 746.666667zM170.677333 789.333333v106.666667a148.437333 148.437333 0 0 1-105.6-43.733333l75.52-75.52A41.706667 41.706667 0 0 0 170.677333 789.333333zM276.277333 641.066667l-75.52 75.52A41.706667 41.706667 0 0 0 170.677333 704v-106.666667a148.437333 148.437333 0 0 1 105.6 43.733334zM65.077333 641.066667l75.52 75.52A41.706667 41.706667 0 0 0 128.010667 746.666667H21.344a148.437333 148.437333 0 0 1 43.733333-105.6z" fill="#F2CAC1" p-id="6249"></path><path d="M883.424 776.746667l75.52 75.52A148.437333 148.437333 0 0 1 853.344 896v-106.666667a41.706667 41.706667 0 0 0 30.08-12.586666zM1002.677333 746.666667h-106.666666a41.706667 41.706667 0 0 0-12.586667-30.08l75.52-75.52A148.437333 148.437333 0 0 1 1002.677333 746.666667zM853.344 597.333333v106.666667a41.706667 41.706667 0 0 0-30.08 12.586667l-75.52-75.52A148.437333 148.437333 0 0 1 853.344 597.333333zM823.264 776.746667l-75.52 75.52A148.437333 148.437333 0 0 1 704.010667 746.666667h106.666666a41.706667 41.706667 0 0 0 12.586667 30.08zM140.597333 776.746667l-75.52 75.52A148.437333 148.437333 0 0 1 21.344 746.666667h106.666667a41.706667 41.706667 0 0 0 12.586666 30.08zM200.757333 776.746667l75.52 75.52A148.437333 148.437333 0 0 1 170.677333 896v-106.666667a41.706667 41.706667 0 0 0 30.08-12.586666zM320.010667 746.666667h-106.666667a41.706667 41.706667 0 0 0-12.586667-30.08l75.52-75.52A148.437333 148.437333 0 0 1 320.010667 746.666667zM170.677333 597.333333v106.666667a41.706667 41.706667 0 0 0-30.08 12.586667l-75.52-75.52A148.437333 148.437333 0 0 1 170.677333 597.333333z" fill="#FFD0AA" p-id="6250"></path><path d="M341.344 448v75.946667a12.16 12.16 0 0 0 0.213333 2.773333h-0.853333c-5.12-30.506667-46.08-54.826667-97.493333-56.96L256.010667 405.333333c21.333333 0 85.333333 7.253333 85.333333 42.666667zM883.424 716.586667A42.24 42.24 0 1 1 853.344 704a41.706667 41.706667 0 0 1 30.08 12.586667zM200.757333 716.586667a42.538667 42.538667 0 1 1-60.16 60.16 42.538667 42.538667 0 1 1 60.16-60.16z" fill="#C1CAD4" p-id="6251"></path><path d="M725.344 256v106.666667a106.666667 106.666667 0 0 1-106.666667-106.666667zM469.344 256h106.666667a106.666667 106.666667 0 0 1-106.666667 106.666667z" fill="#F3596B" p-id="6252"></path><path d="M725.344 362.666667v42.666666H469.344v-42.666666a106.666667 106.666667 0 0 0 106.666667-106.666667h42.666666a106.666667 106.666667 0 0 0 106.666667 106.666667z" fill="#C1CAD4" p-id="6253"></path><path d="M725.344 405.333333v192l-128 42.666667-128-42.666667v-192h256z" fill="#7C8691" p-id="6254"></path><path d="M469.344 405.333333v192l-98.773333-32.853333a42.666667 42.666667 0 0 1-29.013334-37.76 12.16 12.16 0 0 1-0.213333-2.773333V128h512v395.946667a42.858667 42.858667 0 0 1-29.226667 40.533333L725.344 597.333333V256H469.344v149.333333zM917.344 362.666667h85.333333v85.333333h-85.333333zM243.210667 469.76L234.677333 512H106.677333l-85.333333-106.666667h64l21.333333-64h128l21.333334 64-12.8 64.426667z" fill="#FFCA6B" p-id="6255"></path><path d="M341.344 128h512v64H341.344z" fill="#F3B55E" p-id="6256"></path><path d="M170.677333 917.333333a170.666667 170.666667 0 1 1 120.682667-49.984A169.557333 169.557333 0 0 1 170.677333 917.333333z m0-298.666666a128 128 0 1 0 90.517334 37.482666A127.210667 127.210667 0 0 0 170.677333 618.666667z" fill="#2A3244" p-id="6257"></path><path d="M170.677333 810.666667a63.872 63.872 0 0 1-44.949333-109.376 65.322667 65.322667 0 0 1 90.325333 0.426666A64 64 0 0 1 170.677333 810.666667z m0-85.333334a20.458667 20.458667 0 0 0-14.784 6.122667A20.842667 20.842667 0 0 0 149.344 746.666667a20.458667 20.458667 0 0 0 6.122667 14.784 21.184 21.184 0 0 0 29.994666 0.426666A20.842667 20.842667 0 0 0 192.010667 746.666667a20.458667 20.458667 0 0 0-6.122667-14.784A20.842667 20.842667 0 0 0 170.677333 725.333333z" fill="#2A3244" p-id="6258"></path><path d="M149.344 597.333333h42.666667v106.666667H149.344zM149.344 789.333333h42.666667v106.666667H149.344zM213.344 725.333333h106.666667v42.666667h-106.666667zM21.344 725.333333h106.666667v42.666667H21.344z" fill="#2A3244" p-id="6259"></path><path d="M262.261333 868.416l-85.333333-85.333333 30.165333-30.165334 84.266667 84.266667-29.098667 31.232zM134.261333 740.416l-84.266666-84.266667 29.098666-31.232 85.333334 85.333334-30.165334 30.165333zM207.093333 740.416l-30.165333-30.165333 84.266667-84.266667 31.232 29.098667-85.333334 85.333333zM80.16 867.349333l-31.232-29.098666 85.333333-85.333334 30.165334 30.165334-84.266667 84.266666zM853.344 917.333333a170.666667 170.666667 0 1 1 120.682667-49.984A169.557333 169.557333 0 0 1 853.344 917.333333z m0-298.666666a128 128 0 1 0 90.517333 37.482666A127.210667 127.210667 0 0 0 853.344 618.666667z" fill="#2A3244" p-id="6260"></path><path d="M853.344 810.666667a63.872 63.872 0 0 1-44.949333-109.376 65.322667 65.322667 0 0 1 90.325333 0.426666A64 64 0 0 1 853.344 810.666667z m0-85.333334a20.458667 20.458667 0 0 0-14.784 6.122667A20.842667 20.842667 0 0 0 832.010667 746.666667a20.458667 20.458667 0 0 0 6.122666 14.784 21.184 21.184 0 0 0 29.994667 0.426666A20.842667 20.842667 0 0 0 874.677333 746.666667a20.458667 20.458667 0 0 0-6.122666-14.784A20.842667 20.842667 0 0 0 853.344 725.333333z" fill="#2A3244" p-id="6261"></path><path d="M832.010667 597.333333h42.666666v106.666667h-42.666666zM832.010667 789.333333h42.666666v106.666667h-42.666666zM896.010667 725.333333h106.666666v42.666667h-106.666666zM704.010667 725.333333h106.666666v42.666667h-106.666666z" fill="#2A3244" p-id="6262"></path><path d="M944.928 868.416l-85.333333-85.333333 30.165333-30.165334 84.266667 84.266667-29.098667 31.232zM816.928 740.416l-84.266667-84.266667 29.098667-31.232 85.333333 85.333334-30.165333 30.165333zM889.76 740.416l-30.165333-30.165333 84.266666-84.266667 31.232 29.098667-85.333333 85.333333zM762.826667 867.349333l-31.232-29.098666 85.333333-85.333334 30.165333 30.165334-84.266666 84.266666zM597.344 661.333333a21.461333 21.461333 0 0 1-6.741333-1.109333l-226.752-75.498667a64 64 0 0 1-43.477334-55.36A33.514667 33.514667 0 0 1 320.010667 523.946667V128a21.333333 21.333333 0 0 1 21.333333-21.333333h512a21.333333 21.333333 0 0 1 21.333333 21.333333v395.946667a64.256 64.256 0 0 1-43.669333 60.714666l-226.922667 75.562667A21.461333 21.461333 0 0 1 597.344 661.333333z m-234.666667-137.578666c0 0.554667 0.128 1.109333 0.170667 1.664a21.333333 21.333333 0 0 0 14.677333 18.901333L597.344 617.514667l220.032-73.28A21.546667 21.546667 0 0 0 832.010667 523.946667V149.333333H362.677333z m-0.405333-2.133334zM234.677333 533.333333H106.677333a21.333333 21.333333 0 0 1-16.661333-8l-85.333333-106.666666A21.333333 21.333333 0 0 1 21.344 384h48.618667l16.490666-49.408A21.333333 21.333333 0 0 1 106.677333 320h128a21.333333 21.333333 0 0 1 20.224 14.592l21.333334 64a20.736 20.736 0 0 1 0.682666 10.88l-21.333333 106.666667A21.333333 21.333333 0 0 1 234.677333 533.333333z m-117.76-42.666666h100.266667l16.768-83.946667L219.296 362.666667H122.058667l-16.490667 49.408A21.333333 21.333333 0 0 1 85.344 426.666667h-19.605333z" fill="#2A3244" p-id="6263"></path><path d="M362.677333 533.333333h-42.666666a11.52 11.52 0 0 0-0.213334-2.304c-3.050667-18.197333-33.450667-38.144-77.482666-39.957333a19.882667 19.882667 0 0 1-2.24-0.213333A34.752 34.752 0 0 0 234.677333 490.666667v-42.666667a87.744 87.744 0 0 1 10.432 0.469333c61.866667 2.901333 109.738667 33.536 116.629334 74.666667A53.333333 53.333333 0 0 1 362.677333 533.333333zM362.677333 448h-42.666666c0-10.986667-36.053333-21.333333-64-21.333333v-42.666667c36.885333 0 106.666667 13.376 106.666666 64zM746.677333 597.333333h-42.666666V277.333333H490.677333v320h-42.666666V256a21.333333 21.333333 0 0 1 21.333333-21.333333h256a21.333333 21.333333 0 0 1 21.333333 21.333333z" fill="#2A3244" p-id="6264"></path><path d="M192.010667 597.333333H149.344c0-56.021333 96.576-85.333333 192-85.333333v42.666667c-97.002667 0-149.333333 30.293333-149.333333 42.666666zM469.344 384h256v42.666667H469.344zM640.010667 448h42.666666v42.666667h-42.666666zM725.344 384a128.128 128.128 0 0 1-128-128h42.666667a85.333333 85.333333 0 0 0 85.333333 85.333333zM469.344 384v-42.666667a85.333333 85.333333 0 0 0 85.333333-85.333333h42.666667a128.128 128.128 0 0 1-128 128zM1002.677333 469.333333h-85.333333a21.333333 21.333333 0 0 1-21.333333-21.333333v-85.333333a21.333333 21.333333 0 0 1 21.333333-21.333334h85.333333a21.333333 21.333333 0 0 1 21.333334 21.333334v85.333333a21.333333 21.333333 0 0 1-21.333334 21.333333z m-64-42.666666h42.666667v-42.666667h-42.666667z" fill="#2A3244" p-id="6265"></path><path d="M889.76 612.416l-30.165333-30.165333L896.010667 545.834667V448h42.666666v106.666667a21.333333 21.333333 0 0 1-6.250666 15.082666z" fill="#2A3244" p-id="6266"></path></svg>