<?xml version="1.0" standalone="no"?><!DOCTYPE svg PUBLIC "-//W3C//DTD SVG 1.1//EN" "http://www.w3.org/Graphics/SVG/1.1/DTD/svg11.dtd"><svg t="1570779984906" class="icon" viewBox="0 0 1024 1024" version="1.1" xmlns="http://www.w3.org/2000/svg" p-id="5975" xmlns:xlink="http://www.w3.org/1999/xlink" width="200" height="200"><defs><style type="text/css"></style></defs><path d="M320 469.333333v149.333334H149.333333a85.333333 85.333333 0 0 0 85.333334-85.333334v-21.333333a42.794667 42.794667 0 0 1 42.666666-42.666667z" fill="#87D7F5" p-id="5976"></path><path d="M106.666667 618.666667h21.333333a106.666667 106.666667 0 0 1-106.666667 106.666666v-21.333333a85.333333 85.333333 0 0 1 85.333334-85.333333z" fill="#F3596B" p-id="5977"></path><path d="M789.333333 896m-42.666666 0a42.666667 42.666667 0 1 0 85.333333 0 42.666667 42.666667 0 1 0-85.333333 0Z" fill="#7C8691" p-id="5978"></path><path d="M192 896m-42.666667 0a42.666667 42.666667 0 1 0 85.333334 0 42.666667 42.666667 0 1 0-85.333334 0Z" fill="#7C8691" p-id="5979"></path><path d="M832 896a42.666667 42.666667 0 1 0-42.666667 42.666667 42.794667 42.794667 0 0 0 42.666667-42.666667z m-42.666667 106.666667a106.666667 106.666667 0 0 1-106.666666-106.666667 105.408 105.408 0 0 1 21.333333-64 106.666667 106.666667 0 0 1 170.666667 0 105.408 105.408 0 0 1 21.333333 64 106.666667 106.666667 0 0 1-106.666667 106.666667zM234.666667 896a42.666667 42.666667 0 1 0-42.666667 42.666667 42.794667 42.794667 0 0 0 42.666667-42.666667z m-42.666667-106.666667a106.666667 106.666667 0 1 1-106.666667 106.666667 106.666667 106.666667 0 0 1 106.666667-106.666667z" fill="#C1CAD4" p-id="5980"></path><path d="M682.666667 554.666667v64h-128v-128h128v64z" fill="#F3596B" p-id="5981"></path><path d="M682.666667 554.666667h234.666666v64H682.666667z" fill="#87D7F5" p-id="5982"></path><path d="M554.666667 618.666667h362.666666v213.333333h-42.666666a106.666667 106.666667 0 0 0-170.666667 0H490.666667V618.666667z" fill="#5CE0BF" p-id="5983"></path><path d="M554.666667 490.666667v128h-64V405.333333h426.666666v149.333334H682.666667v-64h-128z" fill="#C1CAD4" p-id="5984"></path><path d="M1002.666667 149.333333v170.666667H405.333333V149.333333h213.333334a42.794667 42.794667 0 0 0 42.666666 42.666667h85.333334a42.794667 42.794667 0 0 0 42.666666-42.666667z" fill="#5CE0BF" p-id="5985"></path><path d="M789.333333 106.666667v42.666666a42.794667 42.794667 0 0 1-42.666666 42.666667h-85.333334a42.794667 42.794667 0 0 1-42.666666-42.666667V106.666667z" fill="#D6B3AD" p-id="5986"></path><path d="M789.333333 106.666667h-170.666666V64a42.794667 42.794667 0 0 1 42.666666-42.666667h85.333334a42.794667 42.794667 0 0 1 42.666666 42.666667z" fill="#F2CAC1" p-id="5987"></path><path d="M405.333333 320v149.333333h-128a42.794667 42.794667 0 0 1-42.666666-42.666666v-42.666667a85.333333 85.333333 0 0 1 85.333333-85.333333h85.333333z" fill="#C1CAD4" p-id="5988"></path><path d="M362.666667 341.333333h42.666666v-42.666666h-85.333333a85.333333 85.333333 0 0 0-85.333333 85.333333v42.666667a42.794667 42.794667 0 0 0 42.666666 42.666666v-42.666666a85.333333 85.333333 0 0 1 85.333334-85.333334z" fill="#F8FAFD" p-id="5989"></path><path d="M490.666667 832h213.333333a105.408 105.408 0 0 0-21.333333 64H405.333333V320h597.333334v533.333333a42.794667 42.794667 0 0 1-42.666667 42.666667h-64a105.408 105.408 0 0 0-21.333333-64h42.666666V405.333333H490.666667v426.666667z" fill="#87D7F5" p-id="5990"></path><path d="M149.333333 618.666667h170.666667v-149.333334h85.333333v426.666667h-106.666666a106.666667 106.666667 0 0 0-213.333334 0H64a42.794667 42.794667 0 0 1-42.666667-42.666667v-128a106.666667 106.666667 0 0 0 106.666667-106.666666z" fill="#F8FAFD" p-id="5991"></path><path d="M405.333333 277.333333h597.333334v42.666667H405.333333zM490.666667 746.666667v85.333333h213.333333a106.666667 106.666667 0 0 1 170.666667 0h42.666666v-85.333333z" fill="#4FD3B2" p-id="5992"></path><path d="M320 469.333333h85.333333v64h-85.333333z" fill="#C1CAD4" p-id="5993"></path><path d="M490.666667 405.333333h426.666666v42.666667H490.666667z" fill="#7C8691" p-id="5994"></path><path d="M405.333333 832v64h277.333334a105.408 105.408 0 0 1 21.333333-64H405.333333zM917.333333 832h-42.666666a105.408 105.408 0 0 1 21.333333 64h64a42.794667 42.794667 0 0 0 42.666667-42.666667v-21.333333z" fill="#64A6F0" p-id="5995"></path><path d="M405.333333 874.666667h277.333334v42.666666H405.333333zM960 917.333333h-64v-42.666666h64a21.333333 21.333333 0 0 0 21.333333-21.333334V320h42.666667v533.333333a64 64 0 0 1-64 64z" fill="#2A3244" p-id="5996"></path><path d="M405.333333 917.333333h-106.666666v-42.666666h85.333333V469.333333h42.666667v426.666667a21.333333 21.333333 0 0 1-21.333334 21.333333zM85.333333 917.333333H64a64 64 0 0 1-64-64v-149.333333a106.794667 106.794667 0 0 1 106.666667-106.666667h42.666666a64 64 0 0 0 64-64v-21.333333a64 64 0 0 1 64-64v42.666667a21.333333 21.333333 0 0 0-21.333333 21.333333v21.333333a106.794667 106.794667 0 0 1-106.666667 106.666667H106.666667a64 64 0 0 0-64 64v149.333333a21.333333 21.333333 0 0 0 21.333333 21.333334h21.333333z" fill="#2A3244" p-id="5997"></path><path d="M192 1024a128 128 0 1 1 128-128 128.128 128.128 0 0 1-128 128z m0-213.333333a85.333333 85.333333 0 1 0 85.333333 85.333333 85.333333 85.333333 0 0 0-85.333333-85.333333zM789.333333 1024a128.128 128.128 0 0 1-128-128 126.122667 126.122667 0 0 1 25.6-76.8 128 128 0 0 1 204.8 0A126.144 126.144 0 0 1 917.333333 896a128.128 128.128 0 0 1-128 128z m0-213.333333a85.930667 85.930667 0 0 0-68.266666 34.133333A83.712 83.712 0 0 0 704 896a85.333333 85.333333 0 0 0 170.666667 0 83.733333 83.733333 0 0 0-17.066667-51.2A85.994667 85.994667 0 0 0 789.333333 810.666667zM21.333333 746.666667v-42.666667a85.333333 85.333333 0 0 0 85.333334-85.333333h42.666666a128.128 128.128 0 0 1-128 128z" fill="#2A3244" p-id="5998"></path><path d="M789.333333 960a64 64 0 1 1 64-64 64 64 0 0 1-64 64z m0-85.333333a21.333333 21.333333 0 1 0 21.333334 21.333333 21.333333 21.333333 0 0 0-21.333334-21.333333zM192 960a64 64 0 1 1 64-64 64 64 0 0 1-64 64z m0-85.333333a21.333333 21.333333 0 1 0 21.333333 21.333333 21.333333 21.333333 0 0 0-21.333333-21.333333zM405.333333 490.666667h-128a64 64 0 0 1-64-64v-42.666667a106.794667 106.794667 0 0 1 106.666667-106.666667h85.333333v42.666667h21.333334v149.333333a21.333333 21.333333 0 0 1-21.333334 21.333334z m-85.333333-170.666667a64 64 0 0 0-64 64v42.666667a21.333333 21.333333 0 0 0 21.333333 21.333333h106.666667v-128h-64z" fill="#2A3244" p-id="5999"></path><path d="M1002.666667 341.333333H405.333333a21.333333 21.333333 0 0 1-21.333333-21.333333V149.333333a21.333333 21.333333 0 0 1 21.333333-21.333333h213.333334v42.666667h-192v128h554.666666V170.666667h-192V128h213.333334a21.333333 21.333333 0 0 1 21.333333 21.333333v170.666667a21.333333 21.333333 0 0 1-21.333333 21.333333zM810.666667 106.666667h-42.666667V64a21.333333 21.333333 0 0 0-21.333333-21.333333h-85.333334a21.333333 21.333333 0 0 0-21.333333 21.333333v42.666667h-42.666667V64a64 64 0 0 1 64-64h85.333334a64 64 0 0 1 64 64z" fill="#2A3244" p-id="6000"></path><path d="M746.666667 213.333333h-85.333334a64 64 0 0 1-64-64V106.666667a21.333333 21.333333 0 0 1 21.333334-21.333334h170.666666a21.333333 21.333333 0 0 1 21.333334 21.333334v42.666666a64 64 0 0 1-64 64z m-106.666667-85.333333v21.333333a21.333333 21.333333 0 0 0 21.333333 21.333334h85.333334a21.333333 21.333333 0 0 0 21.333333-21.333334V128zM917.333333 853.333333h-42.666666v-42.666666h21.333333v-192h42.666667v213.333333a21.333333 21.333333 0 0 1-21.333334 21.333333zM704 853.333333H490.666667a21.333333 21.333333 0 0 1-21.333334-21.333333V405.333333a21.333333 21.333333 0 0 1 21.333334-21.333333h426.666666a21.333333 21.333333 0 0 1 21.333334 21.333333v149.333334h-42.666667v-128H512v384h192z" fill="#2A3244" p-id="6001"></path><path d="M490.666667 597.333333h64v42.666667h-64zM320 640H149.333333v-42.666667h149.333334v-128h42.666666v149.333334a21.333333 21.333333 0 0 1-21.333333 21.333333z" fill="#2A3244" p-id="6002"></path><path d="M682.666667 640h-128a21.333333 21.333333 0 0 1-21.333334-21.333333v-128a21.333333 21.333333 0 0 1 21.333334-21.333334h128a21.333333 21.333333 0 0 1 21.333333 21.333334v64h-42.666667v-42.666667h-85.333333v85.333333h106.666667z" fill="#2A3244" p-id="6003"></path><path d="M917.333333 640H682.666667a21.333333 21.333333 0 0 1-21.333334-21.333333v-64a21.333333 21.333333 0 0 1 21.333334-21.333334h234.666666a21.333333 21.333333 0 0 1 21.333334 21.333334v64a21.333333 21.333333 0 0 1-21.333334 21.333333z m-213.333333-42.666667h192v-21.333333h-192z" fill="#2A3244" p-id="6004"></path></svg>