<?xml version="1.0" standalone="no"?><!DOCTYPE svg PUBLIC "-//W3C//DTD SVG 1.1//EN" "http://www.w3.org/Graphics/SVG/1.1/DTD/svg11.dtd"><svg t="1570779965944" class="icon" viewBox="0 0 1024 1024" version="1.1" xmlns="http://www.w3.org/2000/svg" p-id="5424" xmlns:xlink="http://www.w3.org/1999/xlink" width="200" height="200"><defs><style type="text/css"></style></defs><path d="M341.333333 192h64v64h-64z" fill="#F3596B" p-id="5425"></path><path d="M405.333333 277.333333v106.666667h-128a42.986667 42.986667 0 0 1-42.666666-42.666667 85.333333 85.333333 0 0 1 85.333333-85.333333h85.333333z" fill="#C1CAD4" p-id="5426"></path><path d="M341.333333 298.666667h64v-42.666667h-85.333333a85.333333 85.333333 0 0 0-85.333333 85.333333 42.304 42.304 0 0 0 21.909333 37.034667A85.034667 85.034667 0 0 1 341.333333 298.666667z" fill="#F8FAFD" p-id="5427"></path><path d="M789.333333 810.666667m-42.666666 0a42.666667 42.666667 0 1 0 85.333333 0 42.666667 42.666667 0 1 0-85.333333 0Z" fill="#7C8691" p-id="5428"></path><path d="M192 810.666667m-42.666667 0a42.666667 42.666667 0 1 0 85.333334 0 42.666667 42.666667 0 1 0-85.333334 0Z" fill="#7C8691" p-id="5429"></path><path d="M832 810.666667a42.666667 42.666667 0 1 0-42.666667 42.666666 42.794667 42.794667 0 0 0 42.666667-42.666666z m-42.666667-106.666667a106.666667 106.666667 0 1 1-106.666666 106.666667 106.666667 106.666667 0 0 1 106.666666-106.666667zM234.666667 810.666667a42.666667 42.666667 0 1 0-42.666667 42.666666 42.794667 42.794667 0 0 0 42.666667-42.666666z m-42.666667-106.666667a106.666667 106.666667 0 1 1-106.666667 106.666667 106.666667 106.666667 0 0 1 106.666667-106.666667z" fill="#C1CAD4" p-id="5430"></path><path d="M789.333333 704a106.666667 106.666667 0 0 0-106.666666 106.666667h-21.333334V512h149.333334l64 64h128v192a42.794667 42.794667 0 0 1-42.666667 42.666667h-64a106.666667 106.666667 0 0 0-106.666667-106.666667zM405.333333 512h85.333334v298.666667h-85.333334z" fill="#5CE0BF" p-id="5431"></path><path d="M874.666667 576l-64-64h-149.333334v85.333333h149.333334l64 64h128v-85.333333h-128zM405.333333 512h85.333334v85.333333h-85.333334z" fill="#64A6F0" p-id="5432"></path><path d="M1002.666667 106.666667v469.333333h-128l-64-64h-149.333334v-170.666667h-170.666666v170.666667h-85.333334V106.666667z m-85.333334 213.333333v-85.333333h-42.666666V192h-85.333334v42.666667h-42.666666v85.333333h42.666666v42.666667h85.333334v-42.666667zM149.333333 533.333333h170.666667v-149.333333h85.333333v426.666667h-106.666666a106.666667 106.666667 0 0 0-213.333334 0H64a42.794667 42.794667 0 0 1-42.666667-42.666667v-128a106.666667 106.666667 0 0 0 106.666667-106.666667z" fill="#F8FAFD" p-id="5433"></path><path d="M661.333333 512v298.666667h-170.666666V341.333333h170.666666v170.666667z" fill="#87D7F5" p-id="5434"></path><path d="M490.666667 810.666667h170.666666V341.333333l-170.666666 469.333334z" fill="#F8FAFD" p-id="5435"></path><path d="M106.666667 533.333333h21.333333a106.666667 106.666667 0 0 1-106.666667 106.666667v-21.333333a85.333333 85.333333 0 0 1 85.333334-85.333334z" fill="#F3596B" p-id="5436"></path><path d="M320 384v149.333333H149.333333a85.333333 85.333333 0 0 0 85.333334-85.333333v-21.333333a42.794667 42.794667 0 0 1 42.666666-42.666667z" fill="#87D7F5" p-id="5437"></path><path d="M917.333333 234.666667v85.333333h-42.666666v42.666667h-85.333334v-42.666667h-42.666666v-85.333333h42.666666V192h85.333334v42.666667h42.666666z" fill="#F3596B" p-id="5438"></path><path d="M320 384h85.333333v42.666667h-85.333333z" fill="#C1CAD4" p-id="5439"></path><path d="M405.333333 789.333333h85.333334v42.666667h-85.333334zM661.333333 789.333333h21.333334v42.666667h-21.333334zM960 832h-64v-42.666667h64a21.333333 21.333333 0 0 0 21.333333-21.333333V128H426.666667v64h-42.666667V106.666667a21.333333 21.333333 0 0 1 21.333333-21.333334h597.333334a21.333333 21.333333 0 0 1 21.333333 21.333334v661.333333a64 64 0 0 1-64 64z" fill="#2A3244" p-id="5440"></path><path d="M405.333333 832h-106.666666v-42.666667h85.333333V384h42.666667v426.666667a21.333333 21.333333 0 0 1-21.333334 21.333333zM85.333333 832H64a64 64 0 0 1-64-64v-149.333333a106.794667 106.794667 0 0 1 106.666667-106.666667h42.666666a64 64 0 0 0 64-64v-21.333333a64 64 0 0 1 64-64v42.666666a21.333333 21.333333 0 0 0-21.333333 21.333334v21.333333a106.794667 106.794667 0 0 1-106.666667 106.666667H106.666667a64 64 0 0 0-64 64v149.333333a21.333333 21.333333 0 0 0 21.333333 21.333333h21.333333z" fill="#2A3244" p-id="5441"></path><path d="M192 938.666667a128 128 0 1 1 128-128 128.128 128.128 0 0 1-128 128z m0-213.333334a85.333333 85.333333 0 1 0 85.333333 85.333334 85.333333 85.333333 0 0 0-85.333333-85.333334zM789.333333 938.666667a128 128 0 1 1 128-128 128.128 128.128 0 0 1-128 128z m0-213.333334a85.333333 85.333333 0 1 0 85.333334 85.333334 85.333333 85.333333 0 0 0-85.333334-85.333334zM21.333333 661.333333v-42.666666a85.333333 85.333333 0 0 0 85.333334-85.333334h42.666666a128.128 128.128 0 0 1-128 128z" fill="#2A3244" p-id="5442"></path><path d="M789.333333 874.666667a64 64 0 1 1 64-64 64 64 0 0 1-64 64z m0-85.333334a21.333333 21.333333 0 1 0 21.333334 21.333334 21.333333 21.333333 0 0 0-21.333334-21.333334zM192 874.666667a64 64 0 1 1 64-64 64 64 0 0 1-64 64z m0-85.333334a21.333333 21.333333 0 1 0 21.333333 21.333334 21.333333 21.333333 0 0 0-21.333333-21.333334zM405.333333 405.333333h-128a64.362667 64.362667 0 0 1-64-64 106.794667 106.794667 0 0 1 106.666667-106.666666h21.333333v42.666666h-21.333333a64 64 0 0 0-64 64 20.416 20.416 0 0 0 6.144 14.805334A20.864 20.864 0 0 0 277.333333 362.666667h106.666667v-106.666667h42.666667v128a21.333333 21.333333 0 0 1-21.333334 21.333333z" fill="#2A3244" p-id="5443"></path><path d="M320 554.666667H149.333333v-42.666667h149.333334v-128h42.666666v149.333333a21.333333 21.333333 0 0 1-21.333333 21.333334zM661.333333 832h-170.666666a21.333333 21.333333 0 0 1-21.333334-21.333333V341.333333a21.333333 21.333333 0 0 1 21.333334-21.333333h170.666666a21.333333 21.333333 0 0 1 21.333334 21.333333v469.333334a21.333333 21.333333 0 0 1-21.333334 21.333333z m-149.333333-42.666667h128V362.666667h-128zM874.666667 384h-85.333334a21.333333 21.333333 0 0 1-21.333333-21.333333v-21.333334h-21.333333a21.333333 21.333333 0 0 1-21.333334-21.333333v-85.333333a21.333333 21.333333 0 0 1 21.333334-21.333334h21.333333V192a21.333333 21.333333 0 0 1 21.333333-21.333333h85.333334a21.333333 21.333333 0 0 1 21.333333 21.333333v21.333333h21.333333a21.333333 21.333333 0 0 1 21.333334 21.333334v85.333333a21.333333 21.333333 0 0 1-21.333334 21.333333h-21.333333v21.333334a21.333333 21.333333 0 0 1-21.333333 21.333333z m-64-42.666667h42.666666v-21.333333a21.333333 21.333333 0 0 1 21.333334-21.333333h21.333333v-42.666667h-21.333333a21.333333 21.333333 0 0 1-21.333334-21.333333v-21.333334h-42.666666v21.333334a21.333333 21.333333 0 0 1-21.333334 21.333333h-21.333333v42.666667h21.333333a21.333333 21.333333 0 0 1 21.333334 21.333333zM469.333333 192h42.666667v42.666667h-42.666667zM554.666667 192h42.666666v42.666667h-42.666666zM405.333333 277.333333h-64a21.333333 21.333333 0 0 1-21.333333-21.333333V192a21.333333 21.333333 0 0 1 21.333333-21.333333h64a21.333333 21.333333 0 0 1 21.333334 21.333333v64a21.333333 21.333333 0 0 1-21.333334 21.333333z m-42.666666-42.666666h21.333333v-21.333334h-21.333333z" fill="#2A3244" p-id="5444"></path><path d="M1002.666667 597.333333h-128a21.333333 21.333333 0 0 1-15.082667-6.250666L801.834667 533.333333H661.333333v-42.666666h149.333334a21.333333 21.333333 0 0 1 15.082666 6.250666L883.498667 554.666667H1002.666667zM405.333333 490.666667h85.333334v42.666666h-85.333334z" fill="#2A3244" p-id="5445"></path></svg>