<?xml version="1.0" standalone="no"?><!DOCTYPE svg PUBLIC "-//W3C//DTD SVG 1.1//EN" "http://www.w3.org/Graphics/SVG/1.1/DTD/svg11.dtd"><svg t="1570779971256" class="icon" viewBox="0 0 1024 1024" version="1.1" xmlns="http://www.w3.org/2000/svg" p-id="5561" xmlns:xlink="http://www.w3.org/1999/xlink" width="200" height="200"><defs><style type="text/css"></style></defs><path d="M938.666667 277.333333v128c-102.826667 0-227.2-81.066667-234.24-182.826666A321.792 321.792 0 0 1 938.666667 277.333333zM896 554.666667l2.56 7.68a287.125333 287.125333 0 0 1-144 53.333333C629.546667 594.56 533.333333 460.8 533.333333 298.666667l-2.773333-3.626667a361.322667 361.322667 0 0 1 88.32-49.92C623.573333 417.066667 745.6 554.666667 896 554.666667z" fill="#F3B55E" p-id="5562"></path><path d="M938.666667 405.333333v85.333334a94.058667 94.058667 0 0 1-40.106667 71.68L896 554.666667c-150.4 0-272.426667-137.6-277.12-309.546667a365.973333 365.973333 0 0 1 85.546667-22.613333C711.466667 324.266667 835.84 405.333333 938.666667 405.333333zM754.56 615.68A432.234667 432.234667 0 0 1 704 618.666667h-128c-70.826667 0-128-85.973333-128-192 0-43.946667 32-92.586667 82.56-131.626667L533.333333 298.666667c0 162.133333 96.213333 295.893333 221.226667 317.013333z" fill="#4FD3B2" p-id="5563"></path><path d="M704.426667 222.506667a154.944 154.944 0 0 0 32.981333 82.325333A318.698667 318.698667 0 0 1 938.666667 362.666667v-85.333334a321.792 321.792 0 0 0-234.24-54.826666zM540.565333 373.184a362.816 362.816 0 0 1 78.314667-42.666667c3.818667-1.514667 7.744-2.837333 11.626667-4.266666a364.8 364.8 0 0 1-11.626667-81.066667 361.322667 361.322667 0 0 0-88.32 49.92L533.333333 298.666667a397.077333 397.077333 0 0 0 7.232 74.517333z" fill="#FFCA6B" p-id="5564"></path><path d="M704.426667 307.84a351.36 351.36 0 0 1 32.981333-3.008 154.944 154.944 0 0 1-32.981333-82.325333 365.973333 365.973333 0 0 0-85.546667 22.613333 364.8 364.8 0 0 0 11.626667 81.066667 362.666667 362.666667 0 0 1 73.92-18.346667zM530.56 380.373333c3.2-2.474667 6.677333-4.778667 10.005333-7.189333A397.077333 397.077333 0 0 1 533.333333 298.666667l-2.773333-3.626667C480 334.08 448 382.72 448 426.666667a283.541333 283.541333 0 0 0 5.205333 53.994666 217.066667 217.066667 0 0 1 77.354667-100.288z" fill="#5CE0BF" p-id="5565"></path><path d="M1002.666667 618.666667v128h-21.333334a85.333333 85.333333 0 0 0-170.666666 0 85.333333 85.333333 0 0 0-170.666667 0h-85.333333a85.333333 85.333333 0 0 0-170.666667 0h-21.333333v-128h640z" fill="#7C8691" p-id="5566"></path><path d="M1002.666667 192v426.666667h-64V192h64z" fill="#87D7F5" p-id="5567"></path><path d="M896 746.666667m-85.333333 0a85.333333 85.333333 0 1 0 170.666666 0 85.333333 85.333333 0 1 0-170.666666 0Z" fill="#C1CAD4" p-id="5568"></path><path d="M725.333333 746.666667m-85.333333 0a85.333333 85.333333 0 1 0 170.666667 0 85.333333 85.333333 0 1 0-170.666667 0Z" fill="#C1CAD4" p-id="5569"></path><path d="M469.333333 746.666667m-85.333333 0a85.333333 85.333333 0 1 0 170.666667 0 85.333333 85.333333 0 1 0-170.666667 0Z" fill="#C1CAD4" p-id="5570"></path><path d="M362.666667 618.666667v128h-85.333334a85.333333 85.333333 0 0 0-170.666666 0H21.333333V490.666667h128v-170.666667h170.666667a42.794667 42.794667 0 0 1 42.666667 42.666667z" fill="#4FD3B2" p-id="5571"></path><path d="M192 746.666667m-85.333333 0a85.333333 85.333333 0 1 0 170.666666 0 85.333333 85.333333 0 1 0-170.666666 0Z" fill="#C1CAD4" p-id="5572"></path><path d="M149.333333 320v170.666667H21.333333v-128a42.794667 42.794667 0 0 1 42.666667-42.666667z" fill="#87D7F5" p-id="5573"></path><path d="M149.333333 320v170.666667H21.333333" fill="#F8FAFD" p-id="5574"></path><path d="M149.333333 320h170.666667a42.666667 42.666667 0 0 1 42.666667 42.666667v42.666666H149.333333v-85.333333z" fill="#5CE0BF" p-id="5575"></path><path d="M192 746.666667m-42.666667 0a42.666667 42.666667 0 1 0 85.333334 0 42.666667 42.666667 0 1 0-85.333334 0Z" fill="#7C8691" p-id="5576"></path><path d="M725.333333 746.666667m-42.666666 0a42.666667 42.666667 0 1 0 85.333333 0 42.666667 42.666667 0 1 0-85.333333 0Z" fill="#7C8691" p-id="5577"></path><path d="M469.333333 746.666667m-42.666666 0a42.666667 42.666667 0 1 0 85.333333 0 42.666667 42.666667 0 1 0-85.333333 0Z" fill="#7C8691" p-id="5578"></path><path d="M896 746.666667m-42.666667 0a42.666667 42.666667 0 1 0 85.333334 0 42.666667 42.666667 0 1 0-85.333334 0Z" fill="#7C8691" p-id="5579"></path><path d="M106.666667 768H21.333333a21.333333 21.333333 0 0 1-21.333333-21.333333V362.666667a64 64 0 0 1 64-64h256a64 64 0 0 1 64 64v256h-42.666667V362.666667a21.333333 21.333333 0 0 0-21.333333-21.333334H64a21.333333 21.333333 0 0 0-21.333333 21.333334v362.666666h64z" fill="#2A3244" p-id="5580"></path><path d="M192 853.333333a106.666667 106.666667 0 1 1 106.666667-106.666666 106.794667 106.794667 0 0 1-106.666667 106.666666z m0-170.666666a64 64 0 1 0 64 64 64 64 0 0 0-64-64zM469.333333 853.333333a106.666667 106.666667 0 1 1 106.666667-106.666666 106.794667 106.794667 0 0 1-106.666667 106.666666z m0-170.666666a64 64 0 1 0 64 64 64 64 0 0 0-64-64zM725.333333 853.333333a106.666667 106.666667 0 1 1 106.666667-106.666666 106.794667 106.794667 0 0 1-106.666667 106.666666z m0-170.666666a64 64 0 1 0 64 64 64 64 0 0 0-64-64z" fill="#2A3244" p-id="5581"></path><path d="M384 768h-21.333333a21.333333 21.333333 0 0 1-21.333334-21.333333v-128a21.333333 21.333333 0 0 1 21.333334-21.333334h576v42.666667H384zM1002.666667 768h-21.333334v-149.333333h42.666667v128a21.333333 21.333333 0 0 1-21.333333 21.333333z" fill="#2A3244" p-id="5582"></path><path d="M896 853.333333a106.666667 106.666667 0 1 1 106.666667-106.666666 106.794667 106.794667 0 0 1-106.666667 106.666666z m0-170.666666a64 64 0 1 0 64 64 64 64 0 0 0-64-64z" fill="#2A3244" p-id="5583"></path><path d="M1002.666667 640h-64a21.333333 21.333333 0 0 1-21.333334-21.333333V192a21.333333 21.333333 0 0 1 21.333334-21.333333h64a21.333333 21.333333 0 0 1 21.333333 21.333333v426.666667a21.333333 21.333333 0 0 1-21.333333 21.333333z m-42.666667-42.666667h21.333333V213.333333h-21.333333zM554.666667 725.333333h85.333333v42.666667h-85.333333zM277.333333 725.333333h85.333334v42.666667h-85.333334z" fill="#2A3244" p-id="5584"></path><path d="M704 640v-42.666667a411.584 411.584 0 0 0 48.064-2.837333 268.8 268.8 0 0 0 133.12-48.746667A75.434667 75.434667 0 0 0 917.333333 490.666667h42.666667a114.154667 114.154667 0 0 1-48.042667 88.298666 307.2 307.2 0 0 1-154.901333 57.92A454.528 454.528 0 0 1 704 640z" fill="#2A3244" p-id="5585"></path><path d="M789.333333 640a232.170667 232.170667 0 0 1-38.4-3.264C614.741333 613.717333 512 468.373333 512 298.666667h42.666667c0 149.141333 87.466667 276.394667 203.456 295.978666A186.005333 186.005333 0 0 0 789.333333 597.333333z" fill="#2A3244" p-id="5586"></path><path d="M896 576c-162.282667 0-293.376-145.066667-298.453333-330.282667C597.333333 242.581333 597.333333 238.506667 597.333333 234.666667h42.666667c0 3.008 0 6.165333 0.170667 9.173333C644.629333 406.485333 756.992 533.333333 896 533.333333z" fill="#2A3244" p-id="5587"></path><path d="M938.666667 426.666667c-111.68 0-247.616-88.533333-255.530667-202.666667A160.213333 160.213333 0 0 1 682.666667 213.333333h42.666666c0 2.474667 0.192 5.12 0.362667 7.594667C731.968 311.317333 847.317333 384 938.666667 384z" fill="#2A3244" p-id="5588"></path><path d="M576 640c-83.733333 0-149.333333-93.717333-149.333333-213.333333 0-49.792 33.109333-103.914667 90.858666-148.522667a381.205333 381.205333 0 0 1 93.546667-52.864 388.778667 388.778667 0 0 1 90.474667-23.936 343.466667 343.466667 0 0 1 249.365333 58.538667l-24.490667 34.901333a301.226667 301.226667 0 0 0-218.965333-51.2 345.984 345.984 0 0 0-80.725333 21.333333 338.794667 338.794667 0 0 0-83.2 46.933334C497.066667 347.84 469.333333 390.72 469.333333 426.666667c0 92.522667 48.853333 170.666667 106.666667 170.666666zM149.333333 512H21.333333v-42.666667h106.666667v-149.333333h42.666667v170.666667a21.333333 21.333333 0 0 1-21.333334 21.333333z" fill="#2A3244" p-id="5589"></path></svg>