<?xml version="1.0" standalone="no"?><!DOCTYPE svg PUBLIC "-//W3C//DTD SVG 1.1//EN" "http://www.w3.org/Graphics/SVG/1.1/DTD/svg11.dtd"><svg t="1570779980607" class="icon" viewBox="0 0 1024 1024" version="1.1" xmlns="http://www.w3.org/2000/svg" p-id="5830" xmlns:xlink="http://www.w3.org/1999/xlink" width="200" height="200"><defs><style type="text/css"></style></defs><path d="M256 192l64 85.333333H128l64-64 21.333333-21.333333h42.666667z" fill="#C1CAD4" p-id="5831"></path><path d="M384 192l-64 85.333333-64-85.333333h128z" fill="#F3596B" p-id="5832"></path><path d="M384 192l64 85.333333h-128l64-85.333333z" fill="#E65263" p-id="5833"></path><path d="M512 192l-64 85.333333-64-85.333333h128z" fill="#F3596B" p-id="5834"></path><path d="M512 192l64 85.333333h-128l64-85.333333z" fill="#E65263" p-id="5835"></path><path d="M640 192l-64 85.333333-64-85.333333h128z" fill="#F3596B" p-id="5836"></path><path d="M640 192l64 85.333333h-128l64-85.333333z" fill="#E65263" p-id="5837"></path><path d="M768 192l-64 85.333333-64-85.333333h128z" fill="#F3596B" p-id="5838"></path><path d="M789.333333 192v85.333333h-85.333333l64-85.333333h21.333333z" fill="#E65263" p-id="5839"></path><path d="M1002.666667 149.333333v298.666667h-128V149.333333h128z" fill="#F3596B" p-id="5840"></path><path d="M874.666667 149.333333v114.773334l-85.333334 46.08V149.333333h85.333334z" fill="#7C8691" p-id="5841"></path><path d="M874.666667 704h128v85.333333h-128z" fill="#C1CAD4" p-id="5842"></path><path d="M874.666667 640h128v64h-128z" fill="#7C8691" p-id="5843"></path><path d="M874.666667 576h128v64h-128z" fill="#C1CAD4" p-id="5844"></path><path d="M874.666667 512h128v64h-128z" fill="#7C8691" p-id="5845"></path><path d="M1002.666667 448v64h-128v-64h128zM828.586667 790.613333A56.597333 56.597333 0 0 1 832 810.666667a64 64 0 0 1-128 0 56.597333 56.597333 0 0 1 3.413333-20.053334 63.744 63.744 0 0 1 121.173334 0zM294.826667 789.333333a59.136 59.136 0 0 1 3.84 21.333334 64 64 0 0 1-128 0 59.136 59.136 0 0 1 3.84-21.333334 63.744 63.744 0 0 1 120.32 0z" fill="#C1CAD4" p-id="5846"></path><path d="M490.666667 426.666667v320h-85.333334V426.666667h85.333334z" fill="#7C8691" p-id="5847"></path><path d="M746.666667 512h64v64h-64zM554.666667 448h128v128h-128zM405.333333 426.666667v64h-128v-128h128v64zM213.333333 362.666667v128H64l85.333333-128h64z" fill="#87D7F5" p-id="5848"></path><path d="M554.666667 576h128v-128l-128 128zM277.333333 490.666667h128v-128l-128 128zM64 490.666667h149.333333v-128l-149.333333 128z" fill="#F8FAFD" p-id="5849"></path><path d="M682.666667 576v-128h-128v128z m128-64h-64v64h64z m64 192v85.333333h-42.666667l-3.413333 1.28a63.744 63.744 0 0 0-121.173334 0L704 789.333333H490.666667V362.666667h213.333333l42.666667 85.333333h128v256zM405.333333 746.666667v42.666666h-110.506666a63.744 63.744 0 0 0-120.32 0H21.333333v-64h42.666667V490.666667h149.333333v-128h64v128h128z" fill="#F3596B" p-id="5850"></path><path d="M490.666667 725.333333v64h213.333333l3.413333 1.28a63.744 63.744 0 0 1 121.173334 0L832 789.333333h42.666667v-64zM21.333333 725.333333v64h153.173334a63.744 63.744 0 0 1 120.32 0H405.333333v-64H21.333333zM938.666667 149.333333h64v298.666667h-64z" fill="#E65263" p-id="5851"></path><path d="M704 810.666667H490.666667a21.333333 21.333333 0 0 1-21.333334-21.333334V362.666667a21.333333 21.333333 0 0 1 21.333334-21.333334h213.333333a21.333333 21.333333 0 0 1 19.2 11.797334L759.850667 426.666667H874.666667v42.666666h-128a21.333333 21.333333 0 0 1-19.2-11.797333L690.816 384H512v384h192zM1002.666667 810.666667h-170.666667v-42.666667h149.333333V448h42.666667v341.333333a21.333333 21.333333 0 0 1-21.333333 21.333334zM234.666667 896a85.333333 85.333333 0 0 1-85.333334-85.333333 79.637333 79.637333 0 0 1 5.290667-29.034667 85.077333 85.077333 0 0 1 160.256 0.384A80.362667 80.362667 0 0 1 320 810.666667a85.333333 85.333333 0 0 1-85.333333 85.333333z m0-128a42.090667 42.090667 0 0 0-39.978667 28.224A39.829333 39.829333 0 0 0 192 810.666667a42.666667 42.666667 0 0 0 85.333333 0 38.506667 38.506667 0 0 0-2.389333-13.632l-0.298667-0.810667A42.090667 42.090667 0 0 0 234.666667 768z" fill="#2A3244" p-id="5852"></path><path d="M768 896a85.333333 85.333333 0 0 1-85.333333-85.333333 77.354667 77.354667 0 0 1 4.821333-27.733334 85.034667 85.034667 0 0 1 161.216 0.512A77.589333 77.589333 0 0 1 853.333333 810.666667a85.333333 85.333333 0 0 1-85.333333 85.333333z m0-128a42.218667 42.218667 0 0 0-40.298667 29.184A37.056 37.056 0 0 0 725.333333 810.666667a42.666667 42.666667 0 0 0 85.333334 0 35.114667 35.114667 0 0 0-2.026667-12.48l-0.341333-1.002667A42.218667 42.218667 0 0 0 768 768zM853.333333 448h42.666667v341.333333h-42.666667z" fill="#2A3244" p-id="5853"></path><path d="M874.666667 490.666667h128v42.666666h-128zM874.666667 554.666667h128v42.666666h-128zM874.666667 618.666667h128v42.666666h-128zM874.666667 682.666667h128v42.666666h-128zM682.666667 597.333333h-128a21.333333 21.333333 0 0 1-21.333334-21.333333v-128a21.333333 21.333333 0 0 1 21.333334-21.333333h128a21.333333 21.333333 0 0 1 21.333333 21.333333v128a21.333333 21.333333 0 0 1-21.333333 21.333333z m-106.666667-42.666666h85.333333v-85.333334h-85.333333zM810.666667 597.333333h-64a21.333333 21.333333 0 0 1-21.333334-21.333333v-64a21.333333 21.333333 0 0 1 21.333334-21.333333h64a21.333333 21.333333 0 0 1 21.333333 21.333333v64a21.333333 21.333333 0 0 1-21.333333 21.333333z m-42.666667-42.666666h21.333333v-21.333334h-21.333333zM405.333333 725.333333h85.333334v42.666667h-85.333334zM405.333333 405.333333h85.333334v42.666667h-85.333334zM213.333333 512H64v-42.666667h128v-106.666666h42.666667v128a21.333333 21.333333 0 0 1-21.333334 21.333333zM405.333333 512h-128a21.333333 21.333333 0 0 1-21.333333-21.333333v-128h42.666667v106.666666h106.666666z" fill="#2A3244" p-id="5854"></path><path d="M405.333333 810.666667h-128v-42.666667h106.666667V384H160.746667L85.333333 497.066667V725.333333a21.333333 21.333333 0 0 1-21.333333 21.333334H42.666667v21.333333h149.333333v42.666667H21.333333a21.333333 21.333333 0 0 1-21.333333-21.333334v-64a21.333333 21.333333 0 0 1 21.333333-21.333333h21.333334V490.666667a21.461333 21.461333 0 0 1 3.584-11.84l85.333333-128A21.333333 21.333333 0 0 1 149.333333 341.333333h256a21.333333 21.333333 0 0 1 21.333334 21.333334v426.666666a21.333333 21.333333 0 0 1-21.333334 21.333334zM1002.666667 469.333333h-128a21.333333 21.333333 0 0 1-21.333334-21.333333v-183.893333h42.666667V426.666667h85.333333V170.666667h-106.666666V128h128a21.333333 21.333333 0 0 1 21.333333 21.333333v298.666667a21.333333 21.333333 0 0 1-21.333333 21.333333zM789.333333 298.666667H128a21.333333 21.333333 0 0 1-15.082667-36.416l85.333334-85.333334A21.333333 21.333333 0 0 1 213.333333 170.666667h576v42.666666H222.165333l-42.666666 42.666667H789.333333z" fill="#2A3244" p-id="5855"></path><path d="M789.333333 331.52a21.333333 21.333333 0 0 1-21.333333-21.333333V149.333333a21.333333 21.333333 0 0 1 21.333333-21.333333h85.333334a21.333333 21.333333 0 0 1 21.333333 21.333333v114.773334a21.333333 21.333333 0 0 1-11.2 18.773333l-85.333333 46.08a21.333333 21.333333 0 0 1-10.133334 2.56zM810.666667 170.666667v103.744l42.666666-23.04V170.666667zM917.333333 170.666667h42.666667v277.333333h-42.666667zM320 298.666667a21.333333 21.333333 0 0 1-17.066667-8.533334l-64-85.333333 34.133334-25.6 46.933333 62.570667L366.933333 179.2l34.133334 25.6-64 85.333333a21.333333 21.333333 0 0 1-17.066667 8.533334z" fill="#2A3244" p-id="5856"></path><path d="M448 298.666667a21.333333 21.333333 0 0 1-17.066667-8.533334l-64-85.333333 34.133334-25.6 46.933333 62.570667L494.933333 179.2l34.133334 25.6-64 85.333333a21.333333 21.333333 0 0 1-17.066667 8.533334z" fill="#2A3244" p-id="5857"></path><path d="M576 298.666667a21.333333 21.333333 0 0 1-17.066667-8.533334l-64-85.333333 34.133334-25.6 46.933333 62.570667L622.933333 179.2l34.133334 25.6-64 85.333333a21.333333 21.333333 0 0 1-17.066667 8.533334z" fill="#2A3244" p-id="5858"></path><path d="M704 298.666667a21.333333 21.333333 0 0 1-17.066667-8.533334l-64-85.333333 34.133334-25.6 46.933333 62.570667L750.933333 179.2l34.133334 25.6-64 85.333333a21.333333 21.333333 0 0 1-17.066667 8.533334zM21.333333 192h170.666667v42.666667H21.333333z" fill="#2A3244" p-id="5859"></path></svg>