<?xml version="1.0" standalone="no"?><!DOCTYPE svg PUBLIC "-//W3C//DTD SVG 1.1//EN" "http://www.w3.org/Graphics/SVG/1.1/DTD/svg11.dtd"><svg t="1570779994590" class="icon" viewBox="0 0 1024 1024" version="1.1" xmlns="http://www.w3.org/2000/svg" p-id="6382" xmlns:xlink="http://www.w3.org/1999/xlink" width="200" height="200"><defs><style type="text/css"></style></defs><path d="M21.333333 320h64v64H21.333333z" fill="#C1CAD4" p-id="6383"></path><path d="M85.333333 320h362.666667v64H85.333333zM832 405.333333h64v85.333334h-64zM661.333333 405.333333h64v85.333334h-64z" fill="#7C8691" p-id="6384"></path><path d="M725.333333 405.333333h106.666667v85.333334h-106.666667zM810.666667 256v64h-170.666667l85.333333-64h85.333334z" fill="#C1CAD4" p-id="6385"></path><path d="M810.666667 170.666667v85.333333h-170.666667V170.666667h170.666667zM853.333333 725.333333a62.058667 62.058667 0 0 1-2.986666 18.986667A63.701333 63.701333 0 1 1 853.333333 725.333333z" fill="#7C8691" p-id="6386"></path><path d="M618.666667 725.333333m-64 0a64 64 0 1 0 128 0 64 64 0 1 0-128 0Z" fill="#7C8691" p-id="6387"></path><path d="M448 725.333333m-64 0a64 64 0 1 0 128 0 64 64 0 1 0-128 0Z" fill="#7C8691" p-id="6388"></path><path d="M277.333333 661.333333a64 64 0 1 1-61.013333 82.986667A62.058667 62.058667 0 0 1 213.333333 725.333333a64 64 0 0 1 64-64z" fill="#7C8691" p-id="6389"></path><path d="M900.906667 597.333333H165.76a42.666667 42.666667 0 0 0-40.32 56.106667L135.253333 682.666667l26.453334 79.786666L170.666667 789.333333l11.52 34.773334a42.858667 42.858667 0 0 0 40.533333 29.226666h621.226667a42.858667 42.858667 0 0 0 40.533333-29.226666L896 789.333333l8.96-26.88 19.413333-58.453333 16.853334-50.56A42.666667 42.666667 0 0 0 900.906667 597.333333zM277.333333 789.333333a63.445333 63.445333 0 0 1-61.013333-45.013333A62.058667 62.058667 0 0 1 213.333333 725.333333a64 64 0 1 1 64 64z m170.666667 0a64 64 0 1 1 64-64 64 64 0 0 1-64 64z m170.666667 0a64 64 0 1 1 64-64 64 64 0 0 1-64 64z m170.666666 0a64 64 0 1 1 64-64 62.058667 62.058667 0 0 1-2.986666 18.986667A63.445333 63.445333 0 0 1 789.333333 789.333333z" fill="#C1CAD4" p-id="6390"></path><path d="M1002.666667 704v85.333333h-106.666667l8.96-26.88 19.413333-58.453333H1002.666667zM161.706667 762.453333L170.666667 789.333333H85.333333l-64-42.666666v-64h113.92l26.453334 79.786666z" fill="#7C8691" p-id="6391"></path><path d="M896 405.333333H661.333333v85.333334h-85.333333l-128-64v-106.666667h512v170.666667h-64v-85.333334z" fill="#4FD3B2" p-id="6392"></path><path d="M941.226667 653.44A42.666667 42.666667 0 0 0 900.906667 597.333333H165.76a42.666667 42.666667 0 0 0-40.32 56.106667L135.253333 682.666667H21.333333v-42.666667l149.333334-149.333333h832v213.333333h-78.293334z" fill="#5CE0BF" p-id="6393"></path><path d="M277.333333 810.666667a84.373333 84.373333 0 0 1-81.450666-60.202667A82.453333 82.453333 0 0 1 192 725.333333a85.333333 85.333333 0 1 1 85.333333 85.333334z m0-128a42.666667 42.666667 0 0 0-42.666666 42.666666 40.32 40.32 0 0 0 1.962666 12.437334A42.069333 42.069333 0 0 0 277.333333 768a42.666667 42.666667 0 0 0 0-85.333333z" fill="#2A3244" p-id="6394"></path><path d="M448 810.666667a85.333333 85.333333 0 1 1 85.333333-85.333334 85.333333 85.333333 0 0 1-85.333333 85.333334z m0-128a42.666667 42.666667 0 1 0 42.666667 42.666666 42.666667 42.666667 0 0 0-42.666667-42.666666z" fill="#2A3244" p-id="6395"></path><path d="M618.666667 810.666667a85.333333 85.333333 0 1 1 85.333333-85.333334 85.333333 85.333333 0 0 1-85.333333 85.333334z m0-128a42.666667 42.666667 0 1 0 42.666666 42.666666 42.666667 42.666667 0 0 0-42.666666-42.666666z" fill="#2A3244" p-id="6396"></path><path d="M789.333333 810.666667a85.333333 85.333333 0 1 1 85.333334-85.333334 85.717333 85.717333 0 0 1-85.333334 85.333334z m0-128a42.666667 42.666667 0 0 0 0 85.333333 41.92 41.92 0 0 0 40.533334-29.866667l0.128-0.405333A40.32 40.32 0 0 0 832 725.333333a42.666667 42.666667 0 0 0-42.666667-42.666666z" fill="#2A3244" p-id="6397"></path><path d="M843.946667 874.666667H222.72a64.256 64.256 0 0 1-60.714667-43.669334l-56.789333-170.773333a64.192 64.192 0 0 1 8.810667-57.706667A63.082667 63.082667 0 0 1 165.76 576h735.146667a63.082667 63.082667 0 0 1 51.733333 26.517333 64.213333 64.213333 0 0 1 8.832 57.6l-56.746667 170.666667A64.32 64.32 0 0 1 843.946667 874.666667zM165.76 618.666667a21.333333 21.333333 0 0 0-20.074667 28.010666l9.792 29.205334 46.933334 141.418666a21.568 21.568 0 0 0 20.309333 14.698667h621.226667a21.632 21.632 0 0 0 20.352-14.784l56.704-170.538667a21.056 21.056 0 0 0-2.986667-19.2 20.821333 20.821333 0 0 0-17.066667-8.810666z" fill="#2A3244" p-id="6398"></path><path d="M1002.666667 725.333333h-85.333334v-42.666666h64v-170.666667H179.498667L42.666667 648.832V661.333333h106.666666v42.666667H21.333333a21.333333 21.333333 0 0 1-21.333333-21.333333v-42.666667a21.333333 21.333333 0 0 1 6.250667-15.082667l149.333333-149.333333A21.333333 21.333333 0 0 1 170.666667 469.333333h832a21.333333 21.333333 0 0 1 21.333333 21.333334v213.333333a21.333333 21.333333 0 0 1-21.333333 21.333333z" fill="#2A3244" p-id="6399"></path><path d="M566.464 509.866667l-128-64A21.333333 21.333333 0 0 1 426.666667 426.666667v-106.666667a21.333333 21.333333 0 0 1 21.333333-21.333333h512a21.333333 21.333333 0 0 1 21.333333 21.333333v170.666667h-42.666666v-149.333334H469.333333v72.149334l116.202667 58.090666z" fill="#2A3244" p-id="6400"></path><path d="M917.333333 490.666667h-42.666666v-64h-192v64h-42.666667v-85.333334a21.333333 21.333333 0 0 1 21.333333-21.333333h234.666667a21.333333 21.333333 0 0 1 21.333333 21.333333z" fill="#2A3244" p-id="6401"></path><path d="M704 405.333333h42.666667v85.333334h-42.666667zM810.666667 405.333333h42.666666v85.333334h-42.666666zM789.333333 256h42.666667v64h-42.666667zM627.2 302.912l85.333333-64 25.6 34.133333-85.354666 64z" fill="#2A3244" p-id="6402"></path><path d="M810.666667 277.333333h-170.666667a21.333333 21.333333 0 0 1-21.333333-21.333333V170.666667a21.333333 21.333333 0 0 1 21.333333-21.333334h170.666667a21.333333 21.333333 0 0 1 21.333333 21.333334v85.333333a21.333333 21.333333 0 0 1-21.333333 21.333333z m-149.333334-42.666666h128V192h-128z" fill="#2A3244" p-id="6403"></path><path d="M533.333333 170.666667h106.666667v42.666666h-106.666667zM533.333333 234.666667h106.666667v42.666666h-106.666667zM448 405.333333H21.333333a21.333333 21.333333 0 0 1-21.333333-21.333333v-64a21.333333 21.333333 0 0 1 21.333333-21.333333h426.666667v42.666666H42.666667v21.333334h405.333333z" fill="#2A3244" p-id="6404"></path><path d="M64 320h42.666667v64H64zM170.666667 810.666667H85.333333a21.461333 21.461333 0 0 1-11.84-3.584l-64-42.666667A21.333333 21.333333 0 0 1 0 746.666667v-64h42.666667v52.586666L91.733333 768H170.666667zM1002.666667 810.666667h-106.666667v-42.666667h85.333333v-64h42.666667v85.333333a21.333333 21.333333 0 0 1-21.333333 21.333334z" fill="#2A3244" p-id="6405"></path></svg>