<?xml version="1.0" standalone="no"?><!DOCTYPE svg PUBLIC "-//W3C//DTD SVG 1.1//EN" "http://www.w3.org/Graphics/SVG/1.1/DTD/svg11.dtd"><svg t="1570779998326" class="icon" viewBox="0 0 1024 1024" version="1.1" xmlns="http://www.w3.org/2000/svg" p-id="6521" xmlns:xlink="http://www.w3.org/1999/xlink" width="200" height="200"><defs><style type="text/css"></style></defs><path d="M384 597.333333v149.333334h-106.666667a85.333333 85.333333 0 0 0-170.666666 0H21.333333V512h277.333334v-192h85.333333z" fill="#C1CAD4" p-id="6522"></path><path d="M298.666667 320v192H21.333333l85.333334-192h192z" fill="#87D7F5" p-id="6523"></path><path d="M21.333333 512h277.333334v-192L21.333333 512z" fill="#F8FAFD" p-id="6524"></path><path d="M853.333333 746.666667a21.333333 21.333333 0 1 0-21.333333 21.333333 21.333333 21.333333 0 0 0 21.333333-21.333333z m-21.333333-85.333334a85.333333 85.333333 0 1 1-85.333333 85.333334 85.333333 85.333333 0 0 1 85.333333-85.333334z" fill="#C1CAD4" p-id="6525"></path><path d="M832 746.666667m-21.333333 0a21.333333 21.333333 0 1 0 42.666666 0 21.333333 21.333333 0 1 0-42.666666 0Z" fill="#7C8691" p-id="6526"></path><path d="M192 746.666667m-21.333333 0a21.333333 21.333333 0 1 0 42.666666 0 21.333333 21.333333 0 1 0-42.666666 0Z" fill="#7C8691" p-id="6527"></path><path d="M192 768a21.333333 21.333333 0 1 0-21.333333-21.333333 21.333333 21.333333 0 0 0 21.333333 21.333333z m0-106.666667a85.333333 85.333333 0 1 1-85.333333 85.333334 85.333333 85.333333 0 0 1 85.333333-85.333334z" fill="#C1CAD4" p-id="6528"></path><path d="M832 661.333333a85.333333 85.333333 0 0 0-85.333333 85.333334H384v-149.333334h618.666667v149.333334h-85.333334a85.333333 85.333333 0 0 0-85.333333-85.333334z" fill="#7C8691" p-id="6529"></path><path d="M1002.666667 192v405.333333H384V192h618.666667z" fill="#FFCA6B" p-id="6530"></path><path d="M384 192h618.666667v64H384z" fill="#F3B55E" p-id="6531"></path><path d="M192 853.333333a106.666667 106.666667 0 1 1 106.666667-106.666666 106.794667 106.794667 0 0 1-106.666667 106.666666z m0-170.666666a64 64 0 1 0 64 64 64 64 0 0 0-64-64z" fill="#2A3244" p-id="6532"></path><path d="M192 789.333333a42.666667 42.666667 0 1 1 42.666667-42.666666 42.666667 42.666667 0 0 1-42.666667 42.666666z m0-42.666666h21.333333zM832 853.333333a106.666667 106.666667 0 1 1 106.666667-106.666666 106.794667 106.794667 0 0 1-106.666667 106.666666z m0-170.666666a64 64 0 1 0 64 64 64 64 0 0 0-64-64z" fill="#2A3244" p-id="6533"></path><path d="M832 789.333333a42.666667 42.666667 0 1 1 42.666667-42.666666 42.666667 42.666667 0 0 1-42.666667 42.666666z m0-42.666666h21.333333zM384 768h-106.666667v-42.666667h85.333334V341.333333H120.512L42.666667 516.522667V725.333333h64v42.666667H21.333333a21.333333 21.333333 0 0 1-21.333333-21.333333V512a21.333333 21.333333 0 0 1 1.834667-8.661333l85.333333-192A21.333333 21.333333 0 0 1 106.666667 298.666667h277.333333a21.333333 21.333333 0 0 1 21.333333 21.333333v426.666667a21.333333 21.333333 0 0 1-21.333333 21.333333z" fill="#2A3244" p-id="6534"></path><path d="M384 725.333333h362.666667v42.666667H384zM1002.666667 768h-85.333334v-42.666667h64V213.333333H405.333333v106.666667h-42.666666V192a21.333333 21.333333 0 0 1 21.333333-21.333333h618.666667a21.333333 21.333333 0 0 1 21.333333 21.333333v554.666667a21.333333 21.333333 0 0 1-21.333333 21.333333z" fill="#2A3244" p-id="6535"></path><path d="M384 576h618.666667v42.666667H384zM298.666667 533.333333H21.333333v-42.666666h256v-170.666667h42.666667v192a21.333333 21.333333 0 0 1-21.333333 21.333333zM384 234.666667h554.666667v42.666666H384z" fill="#2A3244" p-id="6536"></path></svg>