<?xml version="1.0" standalone="no"?><!DOCTYPE svg PUBLIC "-//W3C//DTD SVG 1.1//EN" "http://www.w3.org/Graphics/SVG/1.1/DTD/svg11.dtd"><svg t="1570779963180" class="icon" viewBox="0 0 1024 1024" version="1.1" xmlns="http://www.w3.org/2000/svg" p-id="5289" xmlns:xlink="http://www.w3.org/1999/xlink" width="200" height="200"><defs><style type="text/css"></style></defs><path d="M938.666667 597.333333l42.666666 85.333334H682.666667l42.666666-85.333334h213.333334zM618.666667 277.333333v85.333334h-149.333334v-85.333334zM384 170.666667h85.333333v85.333333h-85.333333z" fill="#C1CAD4" p-id="5290"></path><path d="M618.666667 362.666667v320h-149.333334V362.666667z" fill="#5597E6" p-id="5291"></path><path d="M64 682.666667h128a85.333333 85.333333 0 0 0-85.333333 85.333333H21.333333v-85.333333z" fill="#4FD3B2" p-id="5292"></path><path d="M832 789.333333a21.333333 21.333333 0 1 0-21.333333-21.333333 21.333333 21.333333 0 0 0 21.333333 21.333333z m0-106.666666a85.333333 85.333333 0 1 1-85.333333 85.333333 85.333333 85.333333 0 0 1 85.333333-85.333333zM640 768a21.333333 21.333333 0 1 0-21.333333 21.333333 21.333333 21.333333 0 0 0 21.333333-21.333333z m-21.333333-85.333333a85.333333 85.333333 0 1 1-85.333334 85.333333 85.333333 85.333333 0 0 1 85.333334-85.333333zM192 789.333333a21.333333 21.333333 0 1 0-21.333333-21.333333 21.333333 21.333333 0 0 0 21.333333 21.333333z m0-106.666666a85.333333 85.333333 0 1 1-85.333333 85.333333 85.333333 85.333333 0 0 1 85.333333-85.333333z" fill="#C1CAD4" p-id="5293"></path><path d="M469.333333 277.333333v405.333334h-85.333333V256h85.333333v21.333333z" fill="#7C8691" p-id="5294"></path><path d="M384 341.333333v149.333334H192l42.666667-149.333334h149.333333z" fill="#87D7F5" p-id="5295"></path><path d="M192 490.666667h192v-149.333334l-192 149.333334z" fill="#F8FAFD" p-id="5296"></path><path d="M384 682.666667v85.333333h-106.666667a85.333333 85.333333 0 0 0-85.333333-85.333333H64v-192h320z" fill="#5597E6" p-id="5297"></path><path d="M832 682.666667H618.666667a85.333333 85.333333 0 0 1 85.333333 85.333333h42.666667a85.333333 85.333333 0 0 1 85.333333-85.333333zM618.666667 682.666667H384v85.333333h149.333333a85.333333 85.333333 0 0 1 85.333334-85.333333zM981.333333 682.666667h-149.333333a85.333333 85.333333 0 0 1 85.333333 85.333333h85.333334v-85.333333z" fill="#4FD3B2" p-id="5298"></path><path d="M64 490.666667h320v85.333333H64zM469.333333 362.666667h149.333334v42.666666h-149.333334z" fill="#64A6F0" p-id="5299"></path><path d="M192 682.666667H21.333333v42.666666h97.152A84.949333 84.949333 0 0 1 192 682.666667zM832 682.666667H618.666667a84.949333 84.949333 0 0 1 73.514666 42.666666h66.304A84.949333 84.949333 0 0 1 832 682.666667zM618.666667 682.666667H384v42.666666h161.152A84.949333 84.949333 0 0 1 618.666667 682.666667zM1002.666667 682.666667h-170.666667a84.949333 84.949333 0 0 1 73.514667 42.666666H1002.666667z" fill="#5CE0BF" p-id="5300"></path><path d="M192 874.666667a106.666667 106.666667 0 1 1 106.666667-106.666667 106.794667 106.794667 0 0 1-106.666667 106.666667z m0-170.666667a64 64 0 1 0 64 64 64 64 0 0 0-64-64z" fill="#2A3244" p-id="5301"></path><path d="M192 810.666667a42.666667 42.666667 0 1 1 42.666667-42.666667 42.666667 42.666667 0 0 1-42.666667 42.666667z m0-42.666667h21.333333zM832 874.666667a106.666667 106.666667 0 1 1 106.666667-106.666667 106.794667 106.794667 0 0 1-106.666667 106.666667z m0-170.666667a64 64 0 1 0 64 64 64 64 0 0 0-64-64z" fill="#2A3244" p-id="5302"></path><path d="M832 810.666667a42.666667 42.666667 0 1 1 42.666667-42.666667 42.666667 42.666667 0 0 1-42.666667 42.666667z m0-42.666667h21.333333zM618.666667 874.666667a106.666667 106.666667 0 1 1 106.666666-106.666667 106.794667 106.794667 0 0 1-106.666666 106.666667z m0-170.666667a64 64 0 1 0 64 64 64 64 0 0 0-64-64z" fill="#2A3244" p-id="5303"></path><path d="M618.666667 810.666667a42.666667 42.666667 0 1 1 42.666666-42.666667 42.666667 42.666667 0 0 1-42.666666 42.666667z m0-42.666667h21.333333zM384 789.333333h-106.666667v-42.666666h85.333334V362.666667h-111.914667l-38.229333 133.845333A21.333333 21.333333 0 0 1 192 512H85.333333v170.666667a21.333333 21.333333 0 0 1-21.333333 21.333333H42.666667v42.666667h64v42.666666H21.333333a21.333333 21.333333 0 0 1-21.333333-21.333333v-85.333333a21.333333 21.333333 0 0 1 21.333333-21.333334h21.333334v-170.666666a21.333333 21.333333 0 0 1 21.333333-21.333334h111.914667l38.229333-133.845333A21.333333 21.333333 0 0 1 234.666667 320h149.333333a21.333333 21.333333 0 0 1 21.333333 21.333333v426.666667a21.333333 21.333333 0 0 1-21.333333 21.333333z" fill="#2A3244" p-id="5304"></path><path d="M384 746.666667h149.333333v42.666666h-149.333333zM1002.666667 789.333333h-85.333334v-42.666666h64v-42.666667H384v-42.666667h618.666667a21.333333 21.333333 0 0 1 21.333333 21.333334v85.333333a21.333333 21.333333 0 0 1-21.333333 21.333333zM192 469.333333h192v42.666667H192z" fill="#2A3244" p-id="5305"></path><path d="M490.666667 682.666667h-42.666667V192h-42.666667v149.333333h-42.666666V170.666667a21.333333 21.333333 0 0 1 21.333333-21.333334h85.333333a21.333333 21.333333 0 0 1 21.333334 21.333334z" fill="#2A3244" p-id="5306"></path><path d="M640 682.666667h-42.666667V298.666667h-128v-42.666667h149.333334a21.333333 21.333333 0 0 1 21.333333 21.333333z" fill="#2A3244" p-id="5307"></path><path d="M469.333333 341.333333h149.333334v42.666667h-149.333334zM384 234.666667h85.333333v42.666666h-85.333333zM962.24 692.202667L925.482667 618.666667h-186.965334L701.866667 692.202667l-38.186667-19.072 42.666667-85.333334A21.333333 21.333333 0 0 1 725.333333 576h213.333334a21.333333 21.333333 0 0 1 19.2 11.797333l42.666666 85.333334zM64 661.333333h128v42.666667H64z" fill="#2A3244" p-id="5308"></path></svg>